%TF.GenerationSoftware,KiCad,Pcbnew,9.0.6*%
%TF.CreationDate,2025-11-07T23:12:57+00:00*%
%TF.ProjectId,DrawSchematic,44726177-5363-4686-956d-617469632e6b,rev?*%
%TF.SameCoordinates,Original*%
%TF.FileFunction,Copper,L2,Bot*%
%TF.FilePolarity,Positive*%
%FSLAX46Y46*%
G04 Gerber Fmt 4.6, Leading zero omitted, Abs format (unit mm)*
G04 Created by KiCad (PCBNEW 9.0.6) date 2025-11-07 23:12:57*
%MOMM*%
%LPD*%
G01*
G04 APERTURE LIST*
%TA.AperFunction,ComponentPad*%
%ADD10C,5.000000*%
%TD*%
%TA.AperFunction,ComponentPad*%
%ADD11R,1.700000X1.700000*%
%TD*%
%TA.AperFunction,ComponentPad*%
%ADD12C,1.700000*%
%TD*%
%TA.AperFunction,ViaPad*%
%ADD13C,0.800000*%
%TD*%
%TA.AperFunction,ViaPad*%
%ADD14C,0.700000*%
%TD*%
%TA.AperFunction,Conductor*%
%ADD15C,0.200000*%
%TD*%
G04 APERTURE END LIST*
D10*
%TO.P,H2,1,1*%
%TO.N,GND*%
X156500000Y-83500000D03*
%TD*%
%TO.P,H3,1,1*%
%TO.N,GND*%
X156500000Y-112000000D03*
%TD*%
%TO.P,H4,1,1*%
%TO.N,GND*%
X134500000Y-112000000D03*
%TD*%
D11*
%TO.P,J1,1,Pin_1*%
%TO.N,VCC*%
X142960000Y-104500000D03*
D12*
%TO.P,J1,2,Pin_2*%
%TO.N,GND*%
X145500000Y-104500000D03*
%TD*%
D10*
%TO.P,H1,1,1*%
%TO.N,GND*%
X134500000Y-83500000D03*
%TD*%
D13*
%TO.N,Net-(U1-CV)*%
X148500000Y-92500000D03*
D14*
%TO.N,TRG*%
X142300000Y-98465000D03*
D13*
X144138201Y-91979955D03*
%TO.N,VCC*%
X148500000Y-99000000D03*
X144500000Y-101000000D03*
%TO.N,Net-(U1-CV)*%
X149500000Y-93500000D03*
D14*
%TO.N,Net-(D1-A)*%
X144500000Y-96500000D03*
X148500000Y-94000000D03*
%TO.N,DIS*%
X149000000Y-90500000D03*
D13*
X144215735Y-94784265D03*
%TD*%
D15*
%TO.N,TRG*%
X141524000Y-93476000D02*
X143020045Y-91979955D01*
X141524000Y-97989000D02*
X141524000Y-93476000D01*
X142000000Y-98465000D02*
X141524000Y-97989000D01*
X142300000Y-98465000D02*
X142000000Y-98465000D01*
X143020045Y-91979955D02*
X144138201Y-91979955D01*
%TO.N,Net-(D1-A)*%
X148497375Y-94002625D02*
X148500000Y-94000000D01*
X147312625Y-94400000D02*
X147710000Y-94002625D01*
X147710000Y-94002625D02*
X148497375Y-94002625D01*
X144500000Y-96500000D02*
X144500000Y-96000000D01*
X146100000Y-94400000D02*
X147312625Y-94400000D01*
X144500000Y-96000000D02*
X146100000Y-94400000D01*
%TO.N,DIS*%
X148500000Y-90500000D02*
X144215735Y-94784265D01*
X149000000Y-90500000D02*
X148500000Y-90500000D01*
%TO.N,Net-(U1-CV)*%
X148500000Y-92500000D02*
X149500000Y-93500000D01*
%TO.N,VCC*%
X146500000Y-99000000D02*
X144500000Y-101000000D01*
X148500000Y-99000000D02*
X146500000Y-99000000D01*
%TD*%
M02*
