%TF.GenerationSoftware,KiCad,Pcbnew,9.0.6*%
%TF.CreationDate,2025-11-07T23:12:57+00:00*%
%TF.ProjectId,DrawSchematic,44726177-5363-4686-956d-617469632e6b,rev?*%
%TF.SameCoordinates,Original*%
%TF.FileFunction,Copper,L1,Top*%
%TF.FilePolarity,Positive*%
%FSLAX46Y46*%
G04 Gerber Fmt 4.6, Leading zero omitted, Abs format (unit mm)*
G04 Created by KiCad (PCBNEW 9.0.6) date 2025-11-07 23:12:57*
%MOMM*%
%LPD*%
G01*
G04 APERTURE LIST*
G04 Aperture macros list*
%AMRoundRect*
0 Rectangle with rounded corners*
0 $1 Rounding radius*
0 $2 $3 $4 $5 $6 $7 $8 $9 X,Y pos of 4 corners*
0 Add a 4 corners polygon primitive as box body*
4,1,4,$2,$3,$4,$5,$6,$7,$8,$9,$2,$3,0*
0 Add four circle primitives for the rounded corners*
1,1,$1+$1,$2,$3*
1,1,$1+$1,$4,$5*
1,1,$1+$1,$6,$7*
1,1,$1+$1,$8,$9*
0 Add four rect primitives between the rounded corners*
20,1,$1+$1,$2,$3,$4,$5,0*
20,1,$1+$1,$4,$5,$6,$7,0*
20,1,$1+$1,$6,$7,$8,$9,0*
20,1,$1+$1,$8,$9,$2,$3,0*%
G04 Aperture macros list end*
%TA.AperFunction,ComponentPad*%
%ADD10C,5.000000*%
%TD*%
%TA.AperFunction,SMDPad,CuDef*%
%ADD11C,1.500000*%
%TD*%
%TA.AperFunction,ComponentPad*%
%ADD12R,1.700000X1.700000*%
%TD*%
%TA.AperFunction,ComponentPad*%
%ADD13C,1.700000*%
%TD*%
%TA.AperFunction,SMDPad,CuDef*%
%ADD14RoundRect,0.225000X0.225000X0.250000X-0.225000X0.250000X-0.225000X-0.250000X0.225000X-0.250000X0*%
%TD*%
%TA.AperFunction,SMDPad,CuDef*%
%ADD15RoundRect,0.225000X-0.225000X-0.250000X0.225000X-0.250000X0.225000X0.250000X-0.225000X0.250000X0*%
%TD*%
%TA.AperFunction,SMDPad,CuDef*%
%ADD16RoundRect,0.218750X0.218750X0.256250X-0.218750X0.256250X-0.218750X-0.256250X0.218750X-0.256250X0*%
%TD*%
%TA.AperFunction,SMDPad,CuDef*%
%ADD17RoundRect,0.162500X-0.825000X-0.162500X0.825000X-0.162500X0.825000X0.162500X-0.825000X0.162500X0*%
%TD*%
%TA.AperFunction,SMDPad,CuDef*%
%ADD18RoundRect,0.200000X-0.200000X-0.275000X0.200000X-0.275000X0.200000X0.275000X-0.200000X0.275000X0*%
%TD*%
%TA.AperFunction,ViaPad*%
%ADD19C,0.800000*%
%TD*%
%TA.AperFunction,ViaPad*%
%ADD20C,0.700000*%
%TD*%
%TA.AperFunction,Conductor*%
%ADD21C,0.200000*%
%TD*%
G04 APERTURE END LIST*
D10*
%TO.P,H2,1,1*%
%TO.N,GND*%
X156500000Y-83500000D03*
%TD*%
%TO.P,H3,1,1*%
%TO.N,GND*%
X156500000Y-112000000D03*
%TD*%
%TO.P,H4,1,1*%
%TO.N,GND*%
X134500000Y-112000000D03*
%TD*%
D11*
%TO.P,FID3,*%
%TO.N,*%
X156500000Y-99000000D03*
%TD*%
D12*
%TO.P,J1,1,Pin_1*%
%TO.N,VCC*%
X142960000Y-104500000D03*
D13*
%TO.P,J1,2,Pin_2*%
%TO.N,GND*%
X145500000Y-104500000D03*
%TD*%
D14*
%TO.P,C2,1*%
%TO.N,Net-(U1-CV)*%
X141775000Y-92500000D03*
%TO.P,C2,2*%
%TO.N,GND*%
X140225000Y-92500000D03*
%TD*%
D11*
%TO.P,FID4,*%
%TO.N,*%
X145500000Y-112500000D03*
%TD*%
D15*
%TO.P,C1,1*%
%TO.N,TRG*%
X141675000Y-89960000D03*
%TO.P,C1,2*%
%TO.N,GND*%
X143225000Y-89960000D03*
%TD*%
D11*
%TO.P,FID1,*%
%TO.N,*%
X144000000Y-83000000D03*
%TD*%
D16*
%TO.P,D1,1,K*%
%TO.N,GND*%
X147287500Y-96640000D03*
%TO.P,D1,2,A*%
%TO.N,Net-(D1-A)*%
X145712500Y-96640000D03*
%TD*%
D17*
%TO.P,U1,1,GND*%
%TO.N,GND*%
X146222500Y-90190000D03*
%TO.P,U1,2,TR*%
%TO.N,TRG*%
X146222500Y-91460000D03*
%TO.P,U1,3,Q*%
%TO.N,Net-(D1-A)*%
X146222500Y-92730000D03*
%TO.P,U1,4,R*%
%TO.N,VCC*%
X146222500Y-94000000D03*
%TO.P,U1,5,CV*%
%TO.N,Net-(U1-CV)*%
X151297500Y-94000000D03*
%TO.P,U1,6,THR*%
%TO.N,TRG*%
X151297500Y-92730000D03*
%TO.P,U1,7,DIS*%
%TO.N,DIS*%
X151297500Y-91460000D03*
%TO.P,U1,8,VCC*%
%TO.N,VCC*%
X151297500Y-90190000D03*
%TD*%
D18*
%TO.P,R1,1*%
%TO.N,VCC*%
X141625000Y-94980000D03*
%TO.P,R1,2*%
%TO.N,DIS*%
X143275000Y-94980000D03*
%TD*%
D11*
%TO.P,FID2,*%
%TO.N,*%
X135500000Y-94000000D03*
%TD*%
D10*
%TO.P,H1,1,1*%
%TO.N,GND*%
X134500000Y-83500000D03*
%TD*%
D18*
%TO.P,R2,1*%
%TO.N,DIS*%
X141625000Y-97490000D03*
%TO.P,R2,2*%
%TO.N,TRG*%
X143275000Y-97490000D03*
%TD*%
%TO.P,R3,1*%
%TO.N,VCC*%
X141625000Y-100000000D03*
%TO.P,R3,2*%
%TO.N,Net-(D1-A)*%
X143275000Y-100000000D03*
%TD*%
D19*
%TO.N,Net-(U1-CV)*%
X148500000Y-92500000D03*
D20*
%TO.N,TRG*%
X142300000Y-98465000D03*
D19*
X144138201Y-91979955D03*
%TO.N,VCC*%
X148500000Y-99000000D03*
X144500000Y-101000000D03*
%TO.N,Net-(U1-CV)*%
X149500000Y-93500000D03*
D20*
%TO.N,Net-(D1-A)*%
X144500000Y-96500000D03*
X148500000Y-94000000D03*
%TO.N,DIS*%
X149000000Y-90500000D03*
D19*
X144215735Y-94784265D03*
%TD*%
D21*
%TO.N,Net-(U1-CV)*%
X142675380Y-93400380D02*
X144599620Y-93400380D01*
X141775000Y-92500000D02*
X142675380Y-93400380D01*
X141775000Y-92775000D02*
X141775000Y-92500000D01*
%TO.N,GND*%
X141826000Y-94101000D02*
X140225000Y-92500000D01*
X142748943Y-94101000D02*
X141826000Y-94101000D01*
X144506099Y-94083265D02*
X142766678Y-94083265D01*
X147287500Y-96640000D02*
X147062834Y-96640000D01*
X147062834Y-96640000D02*
X144506099Y-94083265D01*
X142766678Y-94083265D02*
X142748943Y-94101000D01*
%TO.N,Net-(U1-CV)*%
X148060000Y-92060000D02*
X148500000Y-92500000D01*
X147480647Y-92060000D02*
X148060000Y-92060000D01*
X147436647Y-92104000D02*
X147480647Y-92060000D01*
X145201010Y-92104000D02*
X147436647Y-92104000D01*
X144739426Y-92565584D02*
X145201010Y-92104000D01*
X144599620Y-93400380D02*
X144599620Y-92875265D01*
X144599620Y-92875265D02*
X144739426Y-92735459D01*
X144739426Y-92735459D02*
X144739426Y-92565584D01*
%TO.N,GND*%
X140225000Y-91275000D02*
X140994945Y-90505055D01*
X140225000Y-92500000D02*
X140225000Y-91275000D01*
X140994945Y-90505055D02*
X140924000Y-90434110D01*
%TO.N,TRG*%
X142300000Y-98465000D02*
X143275000Y-97490000D01*
%TO.N,Net-(D1-A)*%
X145572500Y-96500000D02*
X145712500Y-96640000D01*
X144500000Y-96500000D02*
X145572500Y-96500000D01*
X147669284Y-93189285D02*
X147209999Y-92730000D01*
X147669284Y-93961909D02*
X147669284Y-93189285D01*
X147209999Y-92730000D02*
X146222500Y-92730000D01*
X147707375Y-94000000D02*
X147669284Y-93961909D01*
X148500000Y-94000000D02*
X147707375Y-94000000D01*
%TO.N,DIS*%
X149960000Y-91460000D02*
X151297500Y-91460000D01*
X149000000Y-90500000D02*
X149960000Y-91460000D01*
%TO.N,Net-(U1-CV)*%
X149500000Y-93500000D02*
X150797500Y-93500000D01*
X150797500Y-93500000D02*
X151297500Y-94000000D01*
%TO.N,TRG*%
X144138201Y-91979955D02*
X143618246Y-91460000D01*
%TO.N,GND*%
X139000000Y-111000000D02*
X134500000Y-111000000D01*
%TO.N,VCC*%
X144165000Y-101335000D02*
X142960000Y-101335000D01*
X144500000Y-101000000D02*
X144165000Y-101335000D01*
X148500000Y-96277500D02*
X148500000Y-99000000D01*
X146222500Y-94000000D02*
X148500000Y-96277500D01*
%TO.N,DIS*%
X144020000Y-94980000D02*
X144215735Y-94784265D01*
X143275000Y-94980000D02*
X144020000Y-94980000D01*
%TO.N,GND*%
X145216500Y-89184000D02*
X146222500Y-90190000D01*
X140924000Y-90434110D02*
X140924000Y-89485890D01*
X141225890Y-89184000D02*
X145216500Y-89184000D01*
X140924000Y-89485890D02*
X141225890Y-89184000D01*
X139985890Y-89485890D02*
X140924000Y-89485890D01*
X134500000Y-84000000D02*
X139985890Y-89485890D01*
X145992500Y-89960000D02*
X146222500Y-90190000D01*
X143225000Y-89960000D02*
X145992500Y-89960000D01*
X142449000Y-89184000D02*
X143225000Y-89960000D01*
X141225890Y-89184000D02*
X142449000Y-89184000D01*
%TO.N,DIS*%
X143275000Y-95840000D02*
X141625000Y-97490000D01*
%TO.N,VCC*%
X140924000Y-99299000D02*
X141625000Y-100000000D01*
X140924000Y-95681000D02*
X140924000Y-99299000D01*
X141625000Y-94980000D02*
X140924000Y-95681000D01*
X142960000Y-101335000D02*
X141625000Y-100000000D01*
X142960000Y-104500000D02*
X142960000Y-101335000D01*
%TO.N,GND*%
X145500000Y-104500000D02*
X139000000Y-111000000D01*
X147287500Y-102712500D02*
X147287500Y-102787500D01*
X147287500Y-102712500D02*
X145500000Y-104500000D01*
X147287500Y-96640000D02*
X147287500Y-102712500D01*
%TO.N,Net-(D1-A)*%
X145712500Y-97562500D02*
X143275000Y-100000000D01*
X145712500Y-96640000D02*
X145712500Y-97562500D01*
%TO.N,TRG*%
X149730000Y-92730000D02*
X151297500Y-92730000D01*
X148460000Y-91460000D02*
X149730000Y-92730000D01*
X146222500Y-91460000D02*
X148460000Y-91460000D01*
%TO.N,VCC*%
X152284999Y-90190000D02*
X151297500Y-90190000D01*
X153000000Y-90905001D02*
X152284999Y-90190000D01*
X153000000Y-95000000D02*
X153000000Y-90905001D01*
X147222500Y-95000000D02*
X153000000Y-95000000D01*
X146222500Y-94000000D02*
X147222500Y-95000000D01*
%TO.N,TRG*%
X143175000Y-91460000D02*
X146222500Y-91460000D01*
X141675000Y-89960000D02*
X143175000Y-91460000D01*
%TO.N,DIS*%
X143275000Y-94980000D02*
X143275000Y-95840000D01*
%TO.N,GND*%
X147287500Y-102787500D02*
X156000000Y-111500000D01*
X153412500Y-83000000D02*
X156500000Y-83000000D01*
X146222500Y-90190000D02*
X153412500Y-83000000D01*
%TD*%
%TA.AperFunction,Conductor*%
%TO.N,GND*%
G36*
X145267259Y-94816359D02*
G01*
X145277113Y-94819430D01*
X145343909Y-94825500D01*
X146147402Y-94825499D01*
X146214441Y-94845183D01*
X146235083Y-94861818D01*
X146860849Y-95487585D01*
X146860855Y-95487590D01*
X146874832Y-95501567D01*
X146908317Y-95562890D01*
X146903333Y-95632582D01*
X146861461Y-95688515D01*
X146826157Y-95706953D01*
X146762930Y-95727905D01*
X146762922Y-95727908D01*
X146619919Y-95816114D01*
X146588033Y-95848000D01*
X146526709Y-95881485D01*
X146457018Y-95876499D01*
X146412673Y-95848000D01*
X146380392Y-95815719D01*
X146380387Y-95815716D01*
X146237295Y-95727455D01*
X146237289Y-95727452D01*
X146237287Y-95727451D01*
X146077685Y-95674564D01*
X146077683Y-95674563D01*
X145979181Y-95664500D01*
X145979174Y-95664500D01*
X145445826Y-95664500D01*
X145445818Y-95664500D01*
X145347316Y-95674563D01*
X145347315Y-95674564D01*
X145305214Y-95688515D01*
X145187715Y-95727450D01*
X145187704Y-95727455D01*
X145092704Y-95786053D01*
X145082501Y-95788844D01*
X145074214Y-95795423D01*
X145049381Y-95797907D01*
X145025312Y-95804494D01*
X145013376Y-95801510D01*
X145004692Y-95802379D01*
X144985458Y-95794529D01*
X144971287Y-95790987D01*
X144964784Y-95787671D01*
X144902863Y-95746297D01*
X144800281Y-95703805D01*
X144795929Y-95701587D01*
X144773944Y-95680813D01*
X144750393Y-95661835D01*
X144748803Y-95657058D01*
X144745144Y-95653601D01*
X144737880Y-95624240D01*
X144728328Y-95595541D01*
X144729573Y-95590662D01*
X144728364Y-95585776D01*
X144738126Y-95557151D01*
X144745607Y-95527841D01*
X144749535Y-95523696D01*
X144750917Y-95519646D01*
X144760845Y-95511765D01*
X144783363Y-95488010D01*
X144789770Y-95483729D01*
X144915199Y-95358300D01*
X145013748Y-95210812D01*
X145081629Y-95046931D01*
X145108756Y-94910553D01*
X145115974Y-94896754D01*
X145118445Y-94881378D01*
X145131836Y-94866429D01*
X145141140Y-94848643D01*
X145154674Y-94840936D01*
X145165065Y-94829337D01*
X145184414Y-94824000D01*
X145201856Y-94814069D01*
X145218335Y-94814646D01*
X145232421Y-94810762D01*
X145267259Y-94816359D01*
G37*
%TD.AperFunction*%
%TA.AperFunction,Conductor*%
G36*
X156503032Y-80000648D02*
G01*
X156836929Y-80017052D01*
X156849037Y-80018245D01*
X156952146Y-80033539D01*
X157176699Y-80066849D01*
X157188617Y-80069219D01*
X157509951Y-80149709D01*
X157521588Y-80153240D01*
X157592806Y-80178722D01*
X157833467Y-80264832D01*
X157844688Y-80269479D01*
X158144163Y-80411120D01*
X158154871Y-80416844D01*
X158438988Y-80587137D01*
X158449106Y-80593897D01*
X158715170Y-80791224D01*
X158724576Y-80798944D01*
X158970013Y-81021395D01*
X158978604Y-81029986D01*
X159165755Y-81236475D01*
X159201055Y-81275423D01*
X159208775Y-81284829D01*
X159406102Y-81550893D01*
X159412862Y-81561011D01*
X159543643Y-81779207D01*
X159583148Y-81845116D01*
X159588883Y-81855844D01*
X159636889Y-81957345D01*
X159730514Y-82155297D01*
X159735170Y-82166540D01*
X159846759Y-82478411D01*
X159850292Y-82490055D01*
X159930777Y-82811369D01*
X159933151Y-82823305D01*
X159981754Y-83150962D01*
X159982947Y-83163071D01*
X159999351Y-83496966D01*
X159999500Y-83503051D01*
X159999500Y-111996948D01*
X159999351Y-112003033D01*
X159982947Y-112336928D01*
X159981754Y-112349037D01*
X159933151Y-112676694D01*
X159930777Y-112688630D01*
X159850292Y-113009944D01*
X159846759Y-113021588D01*
X159735170Y-113333459D01*
X159730514Y-113344702D01*
X159588885Y-113644151D01*
X159583148Y-113654883D01*
X159412862Y-113938988D01*
X159406102Y-113949106D01*
X159208775Y-114215170D01*
X159201055Y-114224576D01*
X158978611Y-114470006D01*
X158970006Y-114478611D01*
X158724576Y-114701055D01*
X158715170Y-114708775D01*
X158449106Y-114906102D01*
X158438988Y-114912862D01*
X158154883Y-115083148D01*
X158144151Y-115088885D01*
X157844702Y-115230514D01*
X157833459Y-115235170D01*
X157521588Y-115346759D01*
X157509944Y-115350292D01*
X157188630Y-115430777D01*
X157176694Y-115433151D01*
X156849037Y-115481754D01*
X156836928Y-115482947D01*
X156521989Y-115498419D01*
X156503031Y-115499351D01*
X156496949Y-115499500D01*
X134503051Y-115499500D01*
X134496968Y-115499351D01*
X134476900Y-115498365D01*
X134163071Y-115482947D01*
X134150962Y-115481754D01*
X133823305Y-115433151D01*
X133811369Y-115430777D01*
X133490055Y-115350292D01*
X133478411Y-115346759D01*
X133166540Y-115235170D01*
X133155301Y-115230515D01*
X132855844Y-115088883D01*
X132845121Y-115083150D01*
X132561011Y-114912862D01*
X132550893Y-114906102D01*
X132284829Y-114708775D01*
X132275423Y-114701055D01*
X132236475Y-114665755D01*
X132029986Y-114478604D01*
X132021395Y-114470013D01*
X131798944Y-114224576D01*
X131791224Y-114215170D01*
X131676950Y-114061090D01*
X131593895Y-113949103D01*
X131587137Y-113938988D01*
X131545108Y-113868867D01*
X131416844Y-113654871D01*
X131411120Y-113644163D01*
X131269479Y-113344688D01*
X131264829Y-113333459D01*
X131153240Y-113021588D01*
X131149707Y-113009944D01*
X131140958Y-112975015D01*
X131069219Y-112688617D01*
X131066848Y-112676694D01*
X131023930Y-112387362D01*
X131021953Y-112374038D01*
X143899500Y-112374038D01*
X143899500Y-112625962D01*
X143909426Y-112688630D01*
X143938910Y-112874785D01*
X144016760Y-113114383D01*
X144131132Y-113338848D01*
X144279201Y-113542649D01*
X144279205Y-113542654D01*
X144457345Y-113720794D01*
X144457350Y-113720798D01*
X144461631Y-113723908D01*
X144661155Y-113868870D01*
X144804184Y-113941747D01*
X144885616Y-113983239D01*
X144885618Y-113983239D01*
X144885621Y-113983241D01*
X145125215Y-114061090D01*
X145374038Y-114100500D01*
X145374039Y-114100500D01*
X145625961Y-114100500D01*
X145625962Y-114100500D01*
X145874785Y-114061090D01*
X146114379Y-113983241D01*
X146338845Y-113868870D01*
X146542656Y-113720793D01*
X146720793Y-113542656D01*
X146868870Y-113338845D01*
X146983241Y-113114379D01*
X147061090Y-112874785D01*
X147100500Y-112625962D01*
X147100500Y-112374038D01*
X147061090Y-112125215D01*
X146983241Y-111885621D01*
X146983239Y-111885618D01*
X146983239Y-111885616D01*
X146941747Y-111804184D01*
X146868870Y-111661155D01*
X146849952Y-111635117D01*
X146720798Y-111457350D01*
X146720794Y-111457345D01*
X146542654Y-111279205D01*
X146542649Y-111279201D01*
X146338848Y-111131132D01*
X146338847Y-111131131D01*
X146338845Y-111131130D01*
X146268747Y-111095413D01*
X146114383Y-111016760D01*
X145874785Y-110938910D01*
X145625962Y-110899500D01*
X145374038Y-110899500D01*
X145249626Y-110919205D01*
X145125214Y-110938910D01*
X144885616Y-111016760D01*
X144661151Y-111131132D01*
X144457350Y-111279201D01*
X144457345Y-111279205D01*
X144279205Y-111457345D01*
X144279201Y-111457350D01*
X144131132Y-111661151D01*
X144016760Y-111885616D01*
X143978609Y-112003033D01*
X143938910Y-112125215D01*
X143899500Y-112374038D01*
X131021953Y-112374038D01*
X131018245Y-112349039D01*
X131018245Y-112349037D01*
X131017052Y-112336927D01*
X131000649Y-112003032D01*
X131000500Y-111996948D01*
X131000500Y-99378054D01*
X140323498Y-99378054D01*
X140364423Y-99530786D01*
X140364424Y-99530787D01*
X140381046Y-99559577D01*
X140443481Y-99667717D01*
X140562349Y-99786585D01*
X140562355Y-99786590D01*
X140688181Y-99912416D01*
X140721666Y-99973739D01*
X140724500Y-100000097D01*
X140724500Y-100331613D01*
X140730913Y-100402192D01*
X140730913Y-100402194D01*
X140730914Y-100402196D01*
X140738321Y-100425965D01*
X140781522Y-100564606D01*
X140869530Y-100710188D01*
X140989811Y-100830469D01*
X140989813Y-100830470D01*
X140989815Y-100830472D01*
X141135394Y-100918478D01*
X141297804Y-100969086D01*
X141368384Y-100975500D01*
X141699903Y-100975500D01*
X141766942Y-100995185D01*
X141787584Y-101011819D01*
X142323181Y-101547416D01*
X142356666Y-101608739D01*
X142359500Y-101635097D01*
X142359500Y-103025500D01*
X142339815Y-103092539D01*
X142287011Y-103138294D01*
X142235501Y-103149500D01*
X142062130Y-103149500D01*
X142062123Y-103149501D01*
X142002516Y-103155908D01*
X141867671Y-103206202D01*
X141867664Y-103206206D01*
X141752455Y-103292452D01*
X141752452Y-103292455D01*
X141666206Y-103407664D01*
X141666202Y-103407671D01*
X141615908Y-103542517D01*
X141609501Y-103602116D01*
X141609500Y-103602135D01*
X141609500Y-105397870D01*
X141609501Y-105397876D01*
X141615908Y-105457483D01*
X141666202Y-105592328D01*
X141666206Y-105592335D01*
X141752452Y-105707544D01*
X141752455Y-105707547D01*
X141867664Y-105793793D01*
X141867671Y-105793797D01*
X142002517Y-105844091D01*
X142002516Y-105844091D01*
X142009444Y-105844835D01*
X142062127Y-105850500D01*
X143857872Y-105850499D01*
X143917483Y-105844091D01*
X144052331Y-105793796D01*
X144167546Y-105707546D01*
X144253796Y-105592331D01*
X144304091Y-105457483D01*
X144310500Y-105397873D01*
X144310499Y-105373979D01*
X144313330Y-105360963D01*
X144323940Y-105341525D01*
X144330179Y-105320275D01*
X144346803Y-105299643D01*
X144346808Y-105299636D01*
X144346811Y-105299634D01*
X144346818Y-105299626D01*
X145017037Y-104629408D01*
X145034075Y-104692993D01*
X145099901Y-104807007D01*
X145192993Y-104900099D01*
X145307007Y-104965925D01*
X145370590Y-104982962D01*
X144738282Y-105615269D01*
X144738282Y-105615270D01*
X144792449Y-105654624D01*
X144981782Y-105751095D01*
X145183870Y-105816757D01*
X145393754Y-105850000D01*
X145606246Y-105850000D01*
X145816127Y-105816757D01*
X145816130Y-105816757D01*
X146018217Y-105751095D01*
X146207554Y-105654622D01*
X146261716Y-105615270D01*
X146261717Y-105615270D01*
X145629408Y-104982962D01*
X145692993Y-104965925D01*
X145807007Y-104900099D01*
X145900099Y-104807007D01*
X145965925Y-104692993D01*
X145982962Y-104629408D01*
X146615270Y-105261717D01*
X146615270Y-105261716D01*
X146654622Y-105207554D01*
X146751095Y-105018217D01*
X146816757Y-104816130D01*
X146816757Y-104816127D01*
X146850000Y-104606246D01*
X146850000Y-104393753D01*
X146816757Y-104183872D01*
X146816757Y-104183869D01*
X146751095Y-103981782D01*
X146654624Y-103792449D01*
X146615270Y-103738282D01*
X146615269Y-103738282D01*
X145982962Y-104370590D01*
X145965925Y-104307007D01*
X145900099Y-104192993D01*
X145807007Y-104099901D01*
X145692993Y-104034075D01*
X145629409Y-104017037D01*
X146261716Y-103384728D01*
X146207550Y-103345375D01*
X146018217Y-103248904D01*
X145816129Y-103183242D01*
X145606246Y-103150000D01*
X145393754Y-103150000D01*
X145183872Y-103183242D01*
X145183869Y-103183242D01*
X144981782Y-103248904D01*
X144792439Y-103345380D01*
X144738282Y-103384727D01*
X144738282Y-103384728D01*
X145370591Y-104017037D01*
X145307007Y-104034075D01*
X145192993Y-104099901D01*
X145099901Y-104192993D01*
X145034075Y-104307007D01*
X145017037Y-104370591D01*
X144346818Y-103700372D01*
X144313333Y-103639049D01*
X144313330Y-103639036D01*
X144310499Y-103626015D01*
X144310499Y-103602128D01*
X144304091Y-103542517D01*
X144275926Y-103467002D01*
X144253798Y-103407673D01*
X144253793Y-103407664D01*
X144167547Y-103292455D01*
X144167544Y-103292452D01*
X144052335Y-103206206D01*
X144052328Y-103206202D01*
X143917482Y-103155908D01*
X143917483Y-103155908D01*
X143857883Y-103149501D01*
X143857881Y-103149500D01*
X143857873Y-103149500D01*
X143857865Y-103149500D01*
X143684500Y-103149500D01*
X143617461Y-103129815D01*
X143571706Y-103077011D01*
X143560500Y-103025500D01*
X143560500Y-102059500D01*
X143580185Y-101992461D01*
X143632989Y-101946706D01*
X143684500Y-101935500D01*
X144078331Y-101935500D01*
X144078347Y-101935501D01*
X144085943Y-101935501D01*
X144244054Y-101935501D01*
X144244057Y-101935501D01*
X144362734Y-101903700D01*
X144406983Y-101900074D01*
X144411307Y-101900500D01*
X144411309Y-101900500D01*
X144588693Y-101900500D01*
X144588694Y-101900499D01*
X144646682Y-101888964D01*
X144762658Y-101865896D01*
X144762661Y-101865894D01*
X144762666Y-101865894D01*
X144926547Y-101798013D01*
X145074035Y-101699464D01*
X145199464Y-101574035D01*
X145298013Y-101426547D01*
X145365894Y-101262666D01*
X145400500Y-101088691D01*
X145400500Y-100911309D01*
X145400500Y-100911306D01*
X145400499Y-100911304D01*
X145365896Y-100737341D01*
X145365893Y-100737332D01*
X145298016Y-100573459D01*
X145298009Y-100573446D01*
X145199464Y-100425965D01*
X145199461Y-100425961D01*
X145074038Y-100300538D01*
X145074034Y-100300535D01*
X144926553Y-100201990D01*
X144926540Y-100201983D01*
X144762667Y-100134106D01*
X144762658Y-100134103D01*
X144588694Y-100099500D01*
X144588691Y-100099500D01*
X144411309Y-100099500D01*
X144411304Y-100099500D01*
X144329665Y-100115739D01*
X144260073Y-100109512D01*
X144204896Y-100066648D01*
X144181652Y-100000759D01*
X144197720Y-99932762D01*
X144217789Y-99906445D01*
X146193020Y-97931216D01*
X146272077Y-97794284D01*
X146313001Y-97641557D01*
X146313001Y-97575053D01*
X146332686Y-97508014D01*
X146355397Y-97481689D01*
X146363139Y-97474921D01*
X146380391Y-97464281D01*
X146415621Y-97429050D01*
X146418749Y-97426317D01*
X146446842Y-97413341D01*
X146473995Y-97398515D01*
X146478279Y-97398821D01*
X146482180Y-97397020D01*
X146512822Y-97401291D01*
X146543687Y-97403499D01*
X146547850Y-97406174D01*
X146551381Y-97406667D01*
X146559593Y-97413721D01*
X146588034Y-97432000D01*
X146619919Y-97463885D01*
X146762922Y-97552091D01*
X146762927Y-97552093D01*
X146922416Y-97604942D01*
X147020856Y-97614999D01*
X147037500Y-97614998D01*
X147037500Y-96764000D01*
X147057185Y-96696961D01*
X147109989Y-96651206D01*
X147161500Y-96640000D01*
X147413500Y-96640000D01*
X147480539Y-96659685D01*
X147526294Y-96712489D01*
X147537500Y-96764000D01*
X147537500Y-97614999D01*
X147554136Y-97614999D01*
X147554152Y-97614998D01*
X147652583Y-97604943D01*
X147736496Y-97577137D01*
X147806324Y-97574735D01*
X147866366Y-97610467D01*
X147897559Y-97672987D01*
X147899500Y-97694843D01*
X147899500Y-98275638D01*
X147879815Y-98342677D01*
X147863181Y-98363319D01*
X147800538Y-98425961D01*
X147800535Y-98425965D01*
X147701990Y-98573446D01*
X147701983Y-98573459D01*
X147634106Y-98737332D01*
X147634103Y-98737341D01*
X147599500Y-98911304D01*
X147599500Y-99088695D01*
X147634103Y-99262658D01*
X147634106Y-99262667D01*
X147701983Y-99426540D01*
X147701990Y-99426553D01*
X147800535Y-99574034D01*
X147800538Y-99574038D01*
X147925961Y-99699461D01*
X147925965Y-99699464D01*
X148073446Y-99798009D01*
X148073459Y-99798016D01*
X148172031Y-99838845D01*
X148237334Y-99865894D01*
X148237336Y-99865894D01*
X148237341Y-99865896D01*
X148411304Y-99900499D01*
X148411307Y-99900500D01*
X148411309Y-99900500D01*
X148588693Y-99900500D01*
X148588694Y-99900499D01*
X148646682Y-99888964D01*
X148762658Y-99865896D01*
X148762661Y-99865894D01*
X148762666Y-99865894D01*
X148926547Y-99798013D01*
X149074035Y-99699464D01*
X149199464Y-99574035D01*
X149298013Y-99426547D01*
X149365894Y-99262666D01*
X149400500Y-99088691D01*
X149400500Y-98911309D01*
X149396929Y-98893356D01*
X149396929Y-98893353D01*
X149393087Y-98874038D01*
X154899500Y-98874038D01*
X154899500Y-99125962D01*
X154913182Y-99212348D01*
X154938910Y-99374785D01*
X155016760Y-99614383D01*
X155095413Y-99768747D01*
X155100902Y-99779520D01*
X155131132Y-99838848D01*
X155279201Y-100042649D01*
X155279205Y-100042654D01*
X155457345Y-100220794D01*
X155457350Y-100220798D01*
X155567101Y-100300536D01*
X155661155Y-100368870D01*
X155804184Y-100441747D01*
X155885616Y-100483239D01*
X155885618Y-100483239D01*
X155885621Y-100483241D01*
X156125215Y-100561090D01*
X156374038Y-100600500D01*
X156374039Y-100600500D01*
X156625961Y-100600500D01*
X156625962Y-100600500D01*
X156874785Y-100561090D01*
X157114379Y-100483241D01*
X157338845Y-100368870D01*
X157542656Y-100220793D01*
X157720793Y-100042656D01*
X157868870Y-99838845D01*
X157983241Y-99614379D01*
X158061090Y-99374785D01*
X158100500Y-99125962D01*
X158100500Y-98874038D01*
X158061090Y-98625215D01*
X157983241Y-98385621D01*
X157983239Y-98385618D01*
X157983239Y-98385616D01*
X157927202Y-98275638D01*
X157868870Y-98161155D01*
X157742410Y-97987097D01*
X157720798Y-97957350D01*
X157720794Y-97957345D01*
X157542654Y-97779205D01*
X157542649Y-97779201D01*
X157338848Y-97631132D01*
X157338847Y-97631131D01*
X157338845Y-97631130D01*
X157228788Y-97575053D01*
X157114383Y-97516760D01*
X156874785Y-97438910D01*
X156831157Y-97432000D01*
X156625962Y-97399500D01*
X156374038Y-97399500D01*
X156328788Y-97406667D01*
X156125214Y-97438910D01*
X155885616Y-97516760D01*
X155661151Y-97631132D01*
X155457350Y-97779201D01*
X155457345Y-97779205D01*
X155279205Y-97957345D01*
X155279201Y-97957350D01*
X155131132Y-98161151D01*
X155016760Y-98385616D01*
X154943270Y-98611795D01*
X154938910Y-98625215D01*
X154899500Y-98874038D01*
X149393087Y-98874038D01*
X149365895Y-98737340D01*
X149365894Y-98737334D01*
X149348923Y-98696363D01*
X149298016Y-98573459D01*
X149298009Y-98573446D01*
X149199464Y-98425965D01*
X149199461Y-98425961D01*
X149136819Y-98363319D01*
X149103334Y-98301996D01*
X149100500Y-98275638D01*
X149100500Y-96198445D01*
X149100500Y-96198443D01*
X149059577Y-96045716D01*
X149059573Y-96045709D01*
X148980524Y-95908790D01*
X148980521Y-95908786D01*
X148980520Y-95908784D01*
X148883917Y-95812181D01*
X148850433Y-95750858D01*
X148855417Y-95681166D01*
X148897289Y-95625233D01*
X148962754Y-95600816D01*
X148971599Y-95600500D01*
X153079055Y-95600500D01*
X153079057Y-95600500D01*
X153231784Y-95559577D01*
X153368716Y-95480520D01*
X153480520Y-95368716D01*
X153559577Y-95231784D01*
X153600500Y-95079057D01*
X153600500Y-90825944D01*
X153575270Y-90731785D01*
X153559577Y-90673216D01*
X153505214Y-90579057D01*
X153480520Y-90536285D01*
X153368716Y-90424481D01*
X153368715Y-90424480D01*
X153364385Y-90420150D01*
X153364374Y-90420140D01*
X152772589Y-89828355D01*
X152768476Y-89824242D01*
X152768429Y-89824157D01*
X152758840Y-89808294D01*
X152757096Y-89809457D01*
X152757094Y-89809454D01*
X152758838Y-89808291D01*
X152737782Y-89773460D01*
X152731531Y-89753398D01*
X152648236Y-89615612D01*
X152648234Y-89615610D01*
X152648233Y-89615608D01*
X152534391Y-89501766D01*
X152396602Y-89418469D01*
X152396596Y-89418467D01*
X152242887Y-89370570D01*
X152242885Y-89370569D01*
X152242883Y-89370569D01*
X152196117Y-89366319D01*
X152176091Y-89364500D01*
X152176088Y-89364500D01*
X150418901Y-89364500D01*
X150352117Y-89370568D01*
X150352106Y-89370571D01*
X150198401Y-89418467D01*
X150060608Y-89501766D01*
X149946766Y-89615608D01*
X149863467Y-89753401D01*
X149827731Y-89868085D01*
X149788994Y-89926233D01*
X149724969Y-89954207D01*
X149655983Y-89943125D01*
X149621665Y-89918876D01*
X149542162Y-89839373D01*
X149402860Y-89746295D01*
X149248082Y-89682184D01*
X149248074Y-89682182D01*
X149083771Y-89649500D01*
X149083767Y-89649500D01*
X148916233Y-89649500D01*
X148916228Y-89649500D01*
X148751925Y-89682182D01*
X148751917Y-89682184D01*
X148597139Y-89746295D01*
X148457837Y-89839373D01*
X148339373Y-89957837D01*
X148246295Y-90097139D01*
X148182184Y-90251917D01*
X148182182Y-90251925D01*
X148149500Y-90416228D01*
X148149500Y-90583771D01*
X148174869Y-90711309D01*
X148168642Y-90780901D01*
X148125779Y-90836078D01*
X148059889Y-90859322D01*
X148053252Y-90859500D01*
X147735012Y-90859500D01*
X147667973Y-90839815D01*
X147622218Y-90787011D01*
X147612274Y-90717853D01*
X147628895Y-90671350D01*
X147656072Y-90626393D01*
X147703932Y-90472802D01*
X147703935Y-90472792D01*
X147706914Y-90440000D01*
X144738085Y-90440000D01*
X144741064Y-90472792D01*
X144741067Y-90472802D01*
X144788927Y-90626393D01*
X144816105Y-90671350D01*
X144833941Y-90738905D01*
X144812423Y-90805379D01*
X144758383Y-90849666D01*
X144709988Y-90859500D01*
X144123115Y-90859500D01*
X144056076Y-90839815D01*
X144010321Y-90787011D01*
X144000377Y-90717853D01*
X144020871Y-90670167D01*
X144018782Y-90668879D01*
X144111542Y-90518492D01*
X144111547Y-90518481D01*
X144164855Y-90357606D01*
X144174999Y-90258322D01*
X144175000Y-90258309D01*
X144175000Y-90210000D01*
X143349000Y-90210000D01*
X143340314Y-90207449D01*
X143331353Y-90208738D01*
X143307312Y-90197759D01*
X143281961Y-90190315D01*
X143276033Y-90183474D01*
X143267797Y-90179713D01*
X143253507Y-90157478D01*
X143236206Y-90137511D01*
X143233918Y-90126996D01*
X143230023Y-90120935D01*
X143225000Y-90086000D01*
X143225000Y-89960000D01*
X143099000Y-89960000D01*
X143031961Y-89940315D01*
X143031687Y-89939999D01*
X144738085Y-89939999D01*
X144738085Y-89940000D01*
X145972500Y-89940000D01*
X146472500Y-89940000D01*
X147706915Y-89940000D01*
X147706914Y-89939999D01*
X147703935Y-89907207D01*
X147703932Y-89907197D01*
X147656072Y-89753607D01*
X147572836Y-89615919D01*
X147459080Y-89502163D01*
X147321396Y-89418929D01*
X147167792Y-89371065D01*
X147101043Y-89365000D01*
X146472500Y-89365000D01*
X146472500Y-89940000D01*
X145972500Y-89940000D01*
X145972500Y-89365000D01*
X145343957Y-89365000D01*
X145277207Y-89371065D01*
X145123603Y-89418929D01*
X144985919Y-89502163D01*
X144872163Y-89615919D01*
X144788927Y-89753607D01*
X144741067Y-89907197D01*
X144741064Y-89907207D01*
X144738085Y-89939999D01*
X143031687Y-89939999D01*
X142986206Y-89887511D01*
X142975000Y-89836000D01*
X142975000Y-89710000D01*
X143475000Y-89710000D01*
X144174999Y-89710000D01*
X144174999Y-89661692D01*
X144174998Y-89661677D01*
X144164855Y-89562392D01*
X144111547Y-89401518D01*
X144111542Y-89401507D01*
X144022575Y-89257271D01*
X144022572Y-89257267D01*
X143902732Y-89137427D01*
X143902728Y-89137424D01*
X143758492Y-89048457D01*
X143758481Y-89048452D01*
X143597606Y-88995144D01*
X143498322Y-88985000D01*
X143475000Y-88985000D01*
X143475000Y-89710000D01*
X142975000Y-89710000D01*
X142975000Y-88984999D01*
X142951693Y-88985000D01*
X142951674Y-88985001D01*
X142852392Y-88995144D01*
X142691518Y-89048452D01*
X142691507Y-89048457D01*
X142547271Y-89137424D01*
X142547265Y-89137428D01*
X142538031Y-89146663D01*
X142476707Y-89180146D01*
X142407015Y-89175159D01*
X142362672Y-89146660D01*
X142353044Y-89137032D01*
X142353040Y-89137029D01*
X142208705Y-89048001D01*
X142208699Y-89047998D01*
X142208697Y-89047997D01*
X142208694Y-89047996D01*
X142047709Y-88994651D01*
X141948346Y-88984500D01*
X141401662Y-88984500D01*
X141401644Y-88984501D01*
X141302292Y-88994650D01*
X141302289Y-88994651D01*
X141141305Y-89047996D01*
X141141294Y-89048001D01*
X140996959Y-89137029D01*
X140996955Y-89137032D01*
X140877032Y-89256955D01*
X140877029Y-89256959D01*
X140788001Y-89401294D01*
X140787996Y-89401305D01*
X140734651Y-89562290D01*
X140724500Y-89661647D01*
X140724500Y-90258337D01*
X140724501Y-90258355D01*
X140734650Y-90357707D01*
X140734651Y-90357710D01*
X140787996Y-90518694D01*
X140788001Y-90518705D01*
X140877029Y-90663040D01*
X140877032Y-90663044D01*
X140996955Y-90782967D01*
X140996959Y-90782970D01*
X141141294Y-90871998D01*
X141141297Y-90871999D01*
X141141303Y-90872003D01*
X141302292Y-90925349D01*
X141401655Y-90935500D01*
X141749902Y-90935499D01*
X141816941Y-90955183D01*
X141837583Y-90971818D01*
X142182707Y-91316942D01*
X142216192Y-91378265D01*
X142211208Y-91447957D01*
X142169336Y-91503890D01*
X142103872Y-91528307D01*
X142082425Y-91527981D01*
X142048348Y-91524500D01*
X141501662Y-91524500D01*
X141501644Y-91524501D01*
X141402292Y-91534650D01*
X141402289Y-91534651D01*
X141241305Y-91587996D01*
X141241294Y-91588001D01*
X141096959Y-91677029D01*
X141096953Y-91677033D01*
X141087324Y-91686663D01*
X141026000Y-91720146D01*
X140956308Y-91715159D01*
X140911965Y-91686660D01*
X140902732Y-91677427D01*
X140902728Y-91677424D01*
X140758492Y-91588457D01*
X140758481Y-91588452D01*
X140597606Y-91535144D01*
X140498322Y-91525000D01*
X140475000Y-91525000D01*
X140475000Y-93474999D01*
X140498308Y-93474999D01*
X140498322Y-93474998D01*
X140597607Y-93464855D01*
X140758481Y-93411547D01*
X140758492Y-93411542D01*
X140902731Y-93322573D01*
X140911959Y-93313345D01*
X140973279Y-93279856D01*
X141042971Y-93284835D01*
X141087327Y-93313339D01*
X141096955Y-93322967D01*
X141096959Y-93322970D01*
X141241294Y-93411998D01*
X141241297Y-93411999D01*
X141241303Y-93412003D01*
X141402292Y-93465349D01*
X141501655Y-93475500D01*
X141849901Y-93475499D01*
X141916940Y-93495183D01*
X141937582Y-93511818D01*
X142306664Y-93880900D01*
X142306666Y-93880901D01*
X142306670Y-93880904D01*
X142443589Y-93959953D01*
X142443596Y-93959957D01*
X142540403Y-93985897D01*
X142600062Y-94022262D01*
X142630591Y-94085109D01*
X142622296Y-94154484D01*
X142595990Y-94193351D01*
X142537682Y-94251660D01*
X142476359Y-94285146D01*
X142406667Y-94280162D01*
X142362319Y-94251661D01*
X142260188Y-94149530D01*
X142221200Y-94125961D01*
X142114606Y-94061522D01*
X141952196Y-94010914D01*
X141952194Y-94010913D01*
X141952192Y-94010913D01*
X141902778Y-94006423D01*
X141881616Y-94004500D01*
X141368384Y-94004500D01*
X141349145Y-94006248D01*
X141297807Y-94010913D01*
X141135393Y-94061522D01*
X140989811Y-94149530D01*
X140869530Y-94269811D01*
X140781522Y-94415393D01*
X140730913Y-94577807D01*
X140724500Y-94648386D01*
X140724500Y-94979902D01*
X140704815Y-95046941D01*
X140688181Y-95067583D01*
X140443481Y-95312282D01*
X140443475Y-95312290D01*
X140403117Y-95382194D01*
X140403117Y-95382196D01*
X140364423Y-95449214D01*
X140364423Y-95449215D01*
X140323499Y-95601943D01*
X140323499Y-95760057D01*
X140323499Y-95760059D01*
X140323500Y-95770053D01*
X140323500Y-99212330D01*
X140323499Y-99212348D01*
X140323499Y-99378054D01*
X140323498Y-99378054D01*
X131000500Y-99378054D01*
X131000500Y-93874038D01*
X133899500Y-93874038D01*
X133899500Y-94125962D01*
X133932925Y-94336996D01*
X133938910Y-94374785D01*
X134016760Y-94614383D01*
X134034085Y-94648384D01*
X134126285Y-94829337D01*
X134131132Y-94838848D01*
X134279201Y-95042649D01*
X134279205Y-95042654D01*
X134457345Y-95220794D01*
X134457350Y-95220798D01*
X134583268Y-95312282D01*
X134661155Y-95368870D01*
X134804184Y-95441747D01*
X134885616Y-95483239D01*
X134885618Y-95483239D01*
X134885621Y-95483241D01*
X135125215Y-95561090D01*
X135374038Y-95600500D01*
X135374039Y-95600500D01*
X135625961Y-95600500D01*
X135625962Y-95600500D01*
X135874785Y-95561090D01*
X136114379Y-95483241D01*
X136338845Y-95368870D01*
X136542656Y-95220793D01*
X136720793Y-95042656D01*
X136868870Y-94838845D01*
X136983241Y-94614379D01*
X137061090Y-94374785D01*
X137100500Y-94125962D01*
X137100500Y-93874038D01*
X137061090Y-93625215D01*
X136983241Y-93385621D01*
X136983239Y-93385618D01*
X136983239Y-93385616D01*
X136890213Y-93203044D01*
X136868870Y-93161155D01*
X136794273Y-93058481D01*
X136720798Y-92957350D01*
X136720794Y-92957345D01*
X136561771Y-92798322D01*
X139275001Y-92798322D01*
X139285144Y-92897607D01*
X139338452Y-93058481D01*
X139338457Y-93058492D01*
X139427424Y-93202728D01*
X139427427Y-93202732D01*
X139547267Y-93322572D01*
X139547271Y-93322575D01*
X139691507Y-93411542D01*
X139691518Y-93411547D01*
X139852393Y-93464855D01*
X139951683Y-93474999D01*
X139975000Y-93474998D01*
X139975000Y-92750000D01*
X139275001Y-92750000D01*
X139275001Y-92798322D01*
X136561771Y-92798322D01*
X136542654Y-92779205D01*
X136542649Y-92779201D01*
X136338848Y-92631132D01*
X136338847Y-92631131D01*
X136338845Y-92631130D01*
X136254588Y-92588199D01*
X136114383Y-92516760D01*
X135874785Y-92438910D01*
X135670208Y-92406508D01*
X135625962Y-92399500D01*
X135374038Y-92399500D01*
X135329792Y-92406508D01*
X135125214Y-92438910D01*
X134885616Y-92516760D01*
X134661151Y-92631132D01*
X134457350Y-92779201D01*
X134457345Y-92779205D01*
X134279205Y-92957345D01*
X134279201Y-92957350D01*
X134131132Y-93161151D01*
X134016760Y-93385616D01*
X133987555Y-93475500D01*
X133938910Y-93625215D01*
X133899500Y-93874038D01*
X131000500Y-93874038D01*
X131000500Y-92201677D01*
X139275000Y-92201677D01*
X139275000Y-92250000D01*
X139975000Y-92250000D01*
X139975000Y-91524999D01*
X139951693Y-91525000D01*
X139951674Y-91525001D01*
X139852392Y-91535144D01*
X139691518Y-91588452D01*
X139691507Y-91588457D01*
X139547271Y-91677424D01*
X139547267Y-91677427D01*
X139427427Y-91797267D01*
X139427424Y-91797271D01*
X139338457Y-91941507D01*
X139338452Y-91941518D01*
X139285144Y-92102393D01*
X139275000Y-92201677D01*
X131000500Y-92201677D01*
X131000500Y-83503051D01*
X131000649Y-83496967D01*
X131017052Y-83163072D01*
X131018245Y-83150962D01*
X131021954Y-83125961D01*
X131059323Y-82874038D01*
X142399500Y-82874038D01*
X142399500Y-83125961D01*
X142438910Y-83374785D01*
X142516760Y-83614383D01*
X142631132Y-83838848D01*
X142779201Y-84042649D01*
X142779205Y-84042654D01*
X142957345Y-84220794D01*
X142957350Y-84220798D01*
X143135117Y-84349952D01*
X143161155Y-84368870D01*
X143304184Y-84441747D01*
X143385616Y-84483239D01*
X143385618Y-84483239D01*
X143385621Y-84483241D01*
X143625215Y-84561090D01*
X143874038Y-84600500D01*
X143874039Y-84600500D01*
X144125961Y-84600500D01*
X144125962Y-84600500D01*
X144374785Y-84561090D01*
X144614379Y-84483241D01*
X144838845Y-84368870D01*
X145042656Y-84220793D01*
X145220793Y-84042656D01*
X145368870Y-83838845D01*
X145483241Y-83614379D01*
X145561090Y-83374785D01*
X145600500Y-83125962D01*
X145600500Y-82874038D01*
X145561090Y-82625215D01*
X145483241Y-82385621D01*
X145483239Y-82385618D01*
X145483239Y-82385616D01*
X145441747Y-82304184D01*
X145368870Y-82161155D01*
X145349952Y-82135117D01*
X145220798Y-81957350D01*
X145220794Y-81957345D01*
X145042654Y-81779205D01*
X145042649Y-81779201D01*
X144838848Y-81631132D01*
X144838847Y-81631131D01*
X144838845Y-81631130D01*
X144701229Y-81561011D01*
X144614383Y-81516760D01*
X144374785Y-81438910D01*
X144125962Y-81399500D01*
X143874038Y-81399500D01*
X143749626Y-81419205D01*
X143625214Y-81438910D01*
X143385616Y-81516760D01*
X143161151Y-81631132D01*
X142957350Y-81779201D01*
X142957345Y-81779205D01*
X142779205Y-81957345D01*
X142779201Y-81957350D01*
X142631132Y-82161151D01*
X142516760Y-82385616D01*
X142438910Y-82625214D01*
X142399500Y-82874038D01*
X131059323Y-82874038D01*
X131066850Y-82823292D01*
X131069218Y-82811385D01*
X131149710Y-82490043D01*
X131153240Y-82478411D01*
X131186443Y-82385616D01*
X131264835Y-82166525D01*
X131269476Y-82155318D01*
X131411124Y-81855828D01*
X131416840Y-81845136D01*
X131587145Y-81560998D01*
X131593888Y-81550905D01*
X131791232Y-81284818D01*
X131798935Y-81275433D01*
X132021405Y-81029975D01*
X132029975Y-81021405D01*
X132275433Y-80798935D01*
X132284818Y-80791232D01*
X132550905Y-80593888D01*
X132560998Y-80587145D01*
X132845136Y-80416840D01*
X132855828Y-80411124D01*
X133155318Y-80269476D01*
X133166525Y-80264835D01*
X133478412Y-80153239D01*
X133490043Y-80149710D01*
X133811385Y-80069218D01*
X133823296Y-80066849D01*
X134150962Y-80018244D01*
X134163068Y-80017052D01*
X134496967Y-80000648D01*
X134503051Y-80000500D01*
X134565892Y-80000500D01*
X156434108Y-80000500D01*
X156496949Y-80000500D01*
X156503032Y-80000648D01*
G37*
%TD.AperFunction*%
%TD*%
M02*
