%TF.GenerationSoftware,KiCad,Pcbnew,9.0.6*%
%TF.CreationDate,2025-11-11T14:20:58+00:00*%
%TF.ProjectId,BJT_Astable_Multivibrator_PCB,424a545f-4173-4746-9162-6c655f4d756c,rev?*%
%TF.SameCoordinates,Original*%
%TF.FileFunction,Copper,L2,Bot*%
%TF.FilePolarity,Positive*%
%FSLAX46Y46*%
G04 Gerber Fmt 4.6, Leading zero omitted, Abs format (unit mm)*
G04 Created by KiCad (PCBNEW 9.0.6) date 2025-11-11 14:20:58*
%MOMM*%
%LPD*%
G01*
G04 APERTURE LIST*
%TA.AperFunction,ComponentPad*%
%ADD10R,1.350000X1.350000*%
%TD*%
%TA.AperFunction,ComponentPad*%
%ADD11C,1.350000*%
%TD*%
%TA.AperFunction,ComponentPad*%
%ADD12C,5.000000*%
%TD*%
%TA.AperFunction,ViaPad*%
%ADD13C,0.600000*%
%TD*%
%TA.AperFunction,Conductor*%
%ADD14C,0.200000*%
%TD*%
G04 APERTURE END LIST*
D10*
%TO.P,J1,1,Pin_1*%
%TO.N,VCC*%
X161542500Y-73000000D03*
D11*
%TO.P,J1,2,Pin_2*%
%TO.N,GND*%
X161542500Y-71000000D03*
%TD*%
D12*
%TO.P,H1,1,1*%
%TO.N,GND*%
X146500000Y-62500000D03*
%TD*%
%TO.P,H3,1,1*%
%TO.N,GND*%
X166000000Y-89500000D03*
%TD*%
%TO.P,H2,1,1*%
%TO.N,GND*%
X166000000Y-62500000D03*
%TD*%
%TO.P,H4,1,1*%
%TO.N,GND*%
X146500000Y-89500000D03*
%TD*%
D13*
%TO.N,Net-(C1-Pad2)*%
X153000000Y-72900000D03*
X152887500Y-71517662D03*
%TO.N,GND*%
X152500000Y-76500000D03*
%TO.N,Net-(D2-K)*%
X156500000Y-74000000D03*
X149878500Y-73500000D03*
%TO.N,Base2*%
X151500000Y-76000000D03*
X148000000Y-74500000D03*
%TD*%
D14*
%TO.N,GND*%
X165500000Y-89500000D02*
X152500000Y-76500000D01*
X166000000Y-89500000D02*
X165500000Y-89500000D01*
X146500000Y-82500000D02*
X146500000Y-89500000D01*
%TO.N,Net-(C1-Pad2)*%
X152887500Y-71517662D02*
X152887500Y-72787500D01*
X152887500Y-72787500D02*
X153000000Y-72900000D01*
%TO.N,GND*%
X152500000Y-76500000D02*
X146500000Y-82500000D01*
%TO.N,Net-(D2-K)*%
X149878500Y-73500000D02*
X156000000Y-73500000D01*
X156000000Y-73500000D02*
X156500000Y-74000000D01*
%TO.N,Base2*%
X149500000Y-76000000D02*
X151500000Y-76000000D01*
X148000000Y-74500000D02*
X149500000Y-76000000D01*
%TD*%
%TA.AperFunction,Conductor*%
%TO.N,GND*%
G36*
X166003736Y-60000726D02*
G01*
X166293796Y-60018271D01*
X166308659Y-60020076D01*
X166590798Y-60071780D01*
X166605335Y-60075363D01*
X166879172Y-60160695D01*
X166893163Y-60166000D01*
X167154743Y-60283727D01*
X167167989Y-60290680D01*
X167413465Y-60439075D01*
X167425776Y-60447573D01*
X167651573Y-60624473D01*
X167662781Y-60634403D01*
X167865596Y-60837218D01*
X167875526Y-60848426D01*
X167995481Y-61001538D01*
X168052422Y-61074217D01*
X168060928Y-61086540D01*
X168209316Y-61332004D01*
X168216275Y-61345263D01*
X168333997Y-61606831D01*
X168339306Y-61620832D01*
X168424635Y-61894663D01*
X168428219Y-61909201D01*
X168479923Y-62191340D01*
X168481728Y-62206205D01*
X168499274Y-62496263D01*
X168499500Y-62503750D01*
X168499500Y-89496249D01*
X168499274Y-89503736D01*
X168481728Y-89793794D01*
X168479923Y-89808659D01*
X168428219Y-90090798D01*
X168424635Y-90105336D01*
X168339306Y-90379167D01*
X168333997Y-90393168D01*
X168216275Y-90654736D01*
X168209316Y-90667995D01*
X168060928Y-90913459D01*
X168052422Y-90925782D01*
X167875526Y-91151573D01*
X167865596Y-91162781D01*
X167662781Y-91365596D01*
X167651573Y-91375526D01*
X167425782Y-91552422D01*
X167413459Y-91560928D01*
X167167995Y-91709316D01*
X167154736Y-91716275D01*
X166893168Y-91833997D01*
X166879167Y-91839306D01*
X166605336Y-91924635D01*
X166590798Y-91928219D01*
X166308659Y-91979923D01*
X166293794Y-91981728D01*
X166003736Y-91999274D01*
X165996249Y-91999500D01*
X146503751Y-91999500D01*
X146496264Y-91999274D01*
X146206205Y-91981728D01*
X146191340Y-91979923D01*
X145909201Y-91928219D01*
X145894663Y-91924635D01*
X145620832Y-91839306D01*
X145606831Y-91833997D01*
X145345263Y-91716275D01*
X145332004Y-91709316D01*
X145086540Y-91560928D01*
X145074217Y-91552422D01*
X144848426Y-91375526D01*
X144837218Y-91365596D01*
X144634403Y-91162781D01*
X144624473Y-91151573D01*
X144447573Y-90925776D01*
X144439075Y-90913465D01*
X144290680Y-90667989D01*
X144283727Y-90654743D01*
X144166000Y-90393163D01*
X144160693Y-90379167D01*
X144075364Y-90105336D01*
X144071780Y-90090798D01*
X144020076Y-89808659D01*
X144018271Y-89793794D01*
X144000726Y-89503736D01*
X144000500Y-89496249D01*
X144000500Y-74421153D01*
X147199500Y-74421153D01*
X147199500Y-74578846D01*
X147230261Y-74733489D01*
X147230264Y-74733501D01*
X147290602Y-74879172D01*
X147290609Y-74879185D01*
X147378210Y-75010288D01*
X147378213Y-75010292D01*
X147489707Y-75121786D01*
X147489711Y-75121789D01*
X147620814Y-75209390D01*
X147620827Y-75209397D01*
X147766498Y-75269735D01*
X147766503Y-75269737D01*
X147831147Y-75282595D01*
X147921849Y-75300638D01*
X147983760Y-75333023D01*
X147985339Y-75334574D01*
X149015139Y-76364374D01*
X149015149Y-76364385D01*
X149019479Y-76368715D01*
X149019480Y-76368716D01*
X149131284Y-76480520D01*
X149131286Y-76480521D01*
X149131290Y-76480524D01*
X149268209Y-76559573D01*
X149268216Y-76559577D01*
X149380019Y-76589534D01*
X149420942Y-76600500D01*
X149420943Y-76600500D01*
X150920234Y-76600500D01*
X150987273Y-76620185D01*
X150989125Y-76621398D01*
X151120814Y-76709390D01*
X151120827Y-76709397D01*
X151266498Y-76769735D01*
X151266503Y-76769737D01*
X151421153Y-76800499D01*
X151421156Y-76800500D01*
X151421158Y-76800500D01*
X151578844Y-76800500D01*
X151578845Y-76800499D01*
X151733497Y-76769737D01*
X151879179Y-76709394D01*
X152010289Y-76621789D01*
X152121789Y-76510289D01*
X152209394Y-76379179D01*
X152269737Y-76233497D01*
X152300500Y-76078842D01*
X152300500Y-75921158D01*
X152300500Y-75921155D01*
X152300499Y-75921153D01*
X152269738Y-75766510D01*
X152269737Y-75766503D01*
X152269735Y-75766498D01*
X152209397Y-75620827D01*
X152209390Y-75620814D01*
X152121789Y-75489711D01*
X152121786Y-75489707D01*
X152010292Y-75378213D01*
X152010288Y-75378210D01*
X151879185Y-75290609D01*
X151879172Y-75290602D01*
X151733501Y-75230264D01*
X151733489Y-75230261D01*
X151578845Y-75199500D01*
X151578842Y-75199500D01*
X151421158Y-75199500D01*
X151421155Y-75199500D01*
X151266510Y-75230261D01*
X151266498Y-75230264D01*
X151120827Y-75290602D01*
X151120814Y-75290609D01*
X150989125Y-75378602D01*
X150922447Y-75399480D01*
X150920234Y-75399500D01*
X149800097Y-75399500D01*
X149733058Y-75379815D01*
X149712416Y-75363181D01*
X148834574Y-74485339D01*
X148801089Y-74424016D01*
X148800638Y-74421849D01*
X148769738Y-74266510D01*
X148769737Y-74266503D01*
X148732043Y-74175500D01*
X148709397Y-74120827D01*
X148709390Y-74120814D01*
X148621789Y-73989711D01*
X148621786Y-73989707D01*
X148510292Y-73878213D01*
X148510288Y-73878210D01*
X148379185Y-73790609D01*
X148379172Y-73790602D01*
X148233501Y-73730264D01*
X148233489Y-73730261D01*
X148078845Y-73699500D01*
X148078842Y-73699500D01*
X147921158Y-73699500D01*
X147921155Y-73699500D01*
X147766510Y-73730261D01*
X147766498Y-73730264D01*
X147620827Y-73790602D01*
X147620814Y-73790609D01*
X147489711Y-73878210D01*
X147489707Y-73878213D01*
X147378213Y-73989707D01*
X147378210Y-73989711D01*
X147290609Y-74120814D01*
X147290602Y-74120827D01*
X147230264Y-74266498D01*
X147230261Y-74266510D01*
X147199500Y-74421153D01*
X144000500Y-74421153D01*
X144000500Y-73421153D01*
X149078000Y-73421153D01*
X149078000Y-73578846D01*
X149108761Y-73733489D01*
X149108764Y-73733501D01*
X149169102Y-73879172D01*
X149169109Y-73879185D01*
X149256710Y-74010288D01*
X149256713Y-74010292D01*
X149368207Y-74121786D01*
X149368211Y-74121789D01*
X149499314Y-74209390D01*
X149499327Y-74209397D01*
X149637183Y-74266498D01*
X149645003Y-74269737D01*
X149799653Y-74300499D01*
X149799656Y-74300500D01*
X149799658Y-74300500D01*
X149957344Y-74300500D01*
X149957345Y-74300499D01*
X150111997Y-74269737D01*
X150257679Y-74209394D01*
X150308405Y-74175500D01*
X150389375Y-74121398D01*
X150456053Y-74100520D01*
X150458266Y-74100500D01*
X155602044Y-74100500D01*
X155669083Y-74120185D01*
X155714838Y-74172989D01*
X155723661Y-74200309D01*
X155730261Y-74233489D01*
X155730264Y-74233501D01*
X155790602Y-74379172D01*
X155790609Y-74379185D01*
X155878210Y-74510288D01*
X155878213Y-74510292D01*
X155989707Y-74621786D01*
X155989711Y-74621789D01*
X156120814Y-74709390D01*
X156120827Y-74709397D01*
X156266498Y-74769735D01*
X156266503Y-74769737D01*
X156421153Y-74800499D01*
X156421156Y-74800500D01*
X156421158Y-74800500D01*
X156578844Y-74800500D01*
X156578845Y-74800499D01*
X156733497Y-74769737D01*
X156879179Y-74709394D01*
X157010289Y-74621789D01*
X157121789Y-74510289D01*
X157209394Y-74379179D01*
X157269737Y-74233497D01*
X157300500Y-74078842D01*
X157300500Y-73921158D01*
X157300500Y-73921155D01*
X157300499Y-73921153D01*
X157274531Y-73790606D01*
X157269737Y-73766503D01*
X157256062Y-73733489D01*
X157209397Y-73620827D01*
X157209390Y-73620814D01*
X157121789Y-73489711D01*
X157121786Y-73489707D01*
X157010292Y-73378213D01*
X157010288Y-73378210D01*
X156879185Y-73290609D01*
X156879172Y-73290602D01*
X156733501Y-73230264D01*
X156733491Y-73230261D01*
X156578151Y-73199362D01*
X156561394Y-73190596D01*
X156542916Y-73186577D01*
X156517875Y-73167831D01*
X156516241Y-73166977D01*
X156514664Y-73165428D01*
X156514660Y-73165425D01*
X156480520Y-73131284D01*
X156368717Y-73019481D01*
X156368716Y-73019480D01*
X156281904Y-72969360D01*
X156281904Y-72969359D01*
X156281900Y-72969358D01*
X156231785Y-72940423D01*
X156079057Y-72899499D01*
X155920943Y-72899499D01*
X155913347Y-72899499D01*
X155913331Y-72899500D01*
X153917848Y-72899500D01*
X153850809Y-72879815D01*
X153805054Y-72827011D01*
X153796231Y-72799692D01*
X153769738Y-72666508D01*
X153769737Y-72666507D01*
X153769737Y-72666503D01*
X153713000Y-72529526D01*
X153709397Y-72520827D01*
X153709390Y-72520814D01*
X153621789Y-72389711D01*
X153621786Y-72389707D01*
X153524319Y-72292240D01*
X153516071Y-72277135D01*
X160367000Y-72277135D01*
X160367000Y-73722870D01*
X160367001Y-73722876D01*
X160373408Y-73782483D01*
X160423702Y-73917328D01*
X160423706Y-73917335D01*
X160509952Y-74032544D01*
X160509955Y-74032547D01*
X160625164Y-74118793D01*
X160625171Y-74118797D01*
X160760017Y-74169091D01*
X160760016Y-74169091D01*
X160766944Y-74169835D01*
X160819627Y-74175500D01*
X162265372Y-74175499D01*
X162324983Y-74169091D01*
X162459831Y-74118796D01*
X162575046Y-74032546D01*
X162661296Y-73917331D01*
X162711591Y-73782483D01*
X162718000Y-73722873D01*
X162717999Y-72277128D01*
X162711591Y-72217517D01*
X162666800Y-72097427D01*
X162661297Y-72082671D01*
X162661293Y-72082664D01*
X162575047Y-71967455D01*
X162489559Y-71903458D01*
X162447689Y-71847524D01*
X162442705Y-71777832D01*
X162463554Y-71731306D01*
X162547447Y-71615838D01*
X162631415Y-71451043D01*
X162631416Y-71451040D01*
X162688566Y-71275147D01*
X162717500Y-71092473D01*
X162717500Y-70907526D01*
X162688566Y-70724852D01*
X162631416Y-70548959D01*
X162631415Y-70548956D01*
X162547449Y-70384165D01*
X162532483Y-70363568D01*
X161942500Y-70953551D01*
X161942500Y-70947339D01*
X161915241Y-70845606D01*
X161862580Y-70754394D01*
X161788106Y-70679920D01*
X161696894Y-70627259D01*
X161595161Y-70600000D01*
X161588947Y-70600000D01*
X162178931Y-70010016D01*
X162178930Y-70010015D01*
X162158334Y-69995050D01*
X161993543Y-69911084D01*
X161993540Y-69911083D01*
X161817647Y-69853933D01*
X161634973Y-69825000D01*
X161450027Y-69825000D01*
X161267352Y-69853933D01*
X161091459Y-69911083D01*
X161091456Y-69911084D01*
X160926667Y-69995049D01*
X160906068Y-70010015D01*
X161496054Y-70600000D01*
X161489839Y-70600000D01*
X161388106Y-70627259D01*
X161296894Y-70679920D01*
X161222420Y-70754394D01*
X161169759Y-70845606D01*
X161142500Y-70947339D01*
X161142500Y-70953553D01*
X160552515Y-70363568D01*
X160537549Y-70384167D01*
X160453584Y-70548956D01*
X160453583Y-70548959D01*
X160396433Y-70724852D01*
X160367500Y-70907526D01*
X160367500Y-71092473D01*
X160396433Y-71275147D01*
X160453583Y-71451040D01*
X160453584Y-71451043D01*
X160537549Y-71615833D01*
X160621446Y-71731308D01*
X160644925Y-71797115D01*
X160629099Y-71865169D01*
X160595439Y-71903459D01*
X160509952Y-71967455D01*
X160423706Y-72082664D01*
X160423702Y-72082671D01*
X160373408Y-72217517D01*
X160367001Y-72277116D01*
X160367001Y-72277123D01*
X160367000Y-72277135D01*
X153516071Y-72277135D01*
X153490834Y-72230917D01*
X153488000Y-72204559D01*
X153488000Y-72097427D01*
X153507685Y-72030388D01*
X153508898Y-72028536D01*
X153596890Y-71896847D01*
X153596890Y-71896846D01*
X153596894Y-71896841D01*
X153657237Y-71751159D01*
X153688000Y-71596504D01*
X153688000Y-71438820D01*
X153688000Y-71438817D01*
X153687999Y-71438815D01*
X153657238Y-71284172D01*
X153657237Y-71284165D01*
X153653502Y-71275147D01*
X153596897Y-71138489D01*
X153596890Y-71138476D01*
X153509289Y-71007373D01*
X153509286Y-71007369D01*
X153397792Y-70895875D01*
X153397788Y-70895872D01*
X153266685Y-70808271D01*
X153266672Y-70808264D01*
X153121001Y-70747926D01*
X153120989Y-70747923D01*
X152966345Y-70717162D01*
X152966342Y-70717162D01*
X152808658Y-70717162D01*
X152808655Y-70717162D01*
X152654010Y-70747923D01*
X152653998Y-70747926D01*
X152508327Y-70808264D01*
X152508314Y-70808271D01*
X152377211Y-70895872D01*
X152377207Y-70895875D01*
X152265713Y-71007369D01*
X152265710Y-71007373D01*
X152178109Y-71138476D01*
X152178102Y-71138489D01*
X152117764Y-71284160D01*
X152117761Y-71284172D01*
X152087000Y-71438815D01*
X152087000Y-71596508D01*
X152117761Y-71751151D01*
X152117764Y-71751163D01*
X152178102Y-71896834D01*
X152178109Y-71896847D01*
X152266102Y-72028536D01*
X152286980Y-72095213D01*
X152287000Y-72097427D01*
X152287000Y-72504862D01*
X152277561Y-72552314D01*
X152230263Y-72666501D01*
X152230261Y-72666509D01*
X152203769Y-72799692D01*
X152171384Y-72861603D01*
X152110668Y-72896177D01*
X152082152Y-72899500D01*
X150458266Y-72899500D01*
X150391227Y-72879815D01*
X150389375Y-72878602D01*
X150257685Y-72790609D01*
X150257672Y-72790602D01*
X150112001Y-72730264D01*
X150111989Y-72730261D01*
X149957345Y-72699500D01*
X149957342Y-72699500D01*
X149799658Y-72699500D01*
X149799655Y-72699500D01*
X149645010Y-72730261D01*
X149644998Y-72730264D01*
X149499327Y-72790602D01*
X149499314Y-72790609D01*
X149368211Y-72878210D01*
X149368207Y-72878213D01*
X149256713Y-72989707D01*
X149256710Y-72989711D01*
X149169109Y-73120814D01*
X149169102Y-73120827D01*
X149108764Y-73266498D01*
X149108761Y-73266510D01*
X149078000Y-73421153D01*
X144000500Y-73421153D01*
X144000500Y-62503750D01*
X144000726Y-62496263D01*
X144018271Y-62206205D01*
X144020076Y-62191340D01*
X144071780Y-61909201D01*
X144075364Y-61894663D01*
X144152096Y-61648422D01*
X144160696Y-61620822D01*
X144165998Y-61606841D01*
X144283731Y-61345249D01*
X144290676Y-61332016D01*
X144439080Y-61086526D01*
X144447567Y-61074230D01*
X144624480Y-60848417D01*
X144634395Y-60837226D01*
X144837226Y-60634395D01*
X144848417Y-60624480D01*
X145074230Y-60447567D01*
X145086526Y-60439080D01*
X145332016Y-60290676D01*
X145345249Y-60283731D01*
X145606841Y-60165998D01*
X145620822Y-60160696D01*
X145894668Y-60075362D01*
X145909197Y-60071780D01*
X146191344Y-60020075D01*
X146206201Y-60018271D01*
X146496264Y-60000726D01*
X146503751Y-60000500D01*
X146565892Y-60000500D01*
X165934108Y-60000500D01*
X165996249Y-60000500D01*
X166003736Y-60000726D01*
G37*
%TD.AperFunction*%
%TD*%
M02*
