%TF.GenerationSoftware,KiCad,Pcbnew,9.0.6*%
%TF.CreationDate,2025-11-11T14:20:58+00:00*%
%TF.ProjectId,BJT_Astable_Multivibrator_PCB,424a545f-4173-4746-9162-6c655f4d756c,rev?*%
%TF.SameCoordinates,Original*%
%TF.FileFunction,Legend,Top*%
%TF.FilePolarity,Positive*%
%FSLAX46Y46*%
G04 Gerber Fmt 4.6, Leading zero omitted, Abs format (unit mm)*
G04 Created by KiCad (PCBNEW 9.0.6) date 2025-11-11 14:20:58*
%MOMM*%
%LPD*%
G01*
G04 APERTURE LIST*
%ADD10C,0.150000*%
%ADD11C,0.120000*%
G04 APERTURE END LIST*
D10*
X150333333Y-73859580D02*
X150285714Y-73907200D01*
X150285714Y-73907200D02*
X150142857Y-73954819D01*
X150142857Y-73954819D02*
X150047619Y-73954819D01*
X150047619Y-73954819D02*
X149904762Y-73907200D01*
X149904762Y-73907200D02*
X149809524Y-73811961D01*
X149809524Y-73811961D02*
X149761905Y-73716723D01*
X149761905Y-73716723D02*
X149714286Y-73526247D01*
X149714286Y-73526247D02*
X149714286Y-73383390D01*
X149714286Y-73383390D02*
X149761905Y-73192914D01*
X149761905Y-73192914D02*
X149809524Y-73097676D01*
X149809524Y-73097676D02*
X149904762Y-73002438D01*
X149904762Y-73002438D02*
X150047619Y-72954819D01*
X150047619Y-72954819D02*
X150142857Y-72954819D01*
X150142857Y-72954819D02*
X150285714Y-73002438D01*
X150285714Y-73002438D02*
X150333333Y-73050057D01*
X150714286Y-73050057D02*
X150761905Y-73002438D01*
X150761905Y-73002438D02*
X150857143Y-72954819D01*
X150857143Y-72954819D02*
X151095238Y-72954819D01*
X151095238Y-72954819D02*
X151190476Y-73002438D01*
X151190476Y-73002438D02*
X151238095Y-73050057D01*
X151238095Y-73050057D02*
X151285714Y-73145295D01*
X151285714Y-73145295D02*
X151285714Y-73240533D01*
X151285714Y-73240533D02*
X151238095Y-73383390D01*
X151238095Y-73383390D02*
X150666667Y-73954819D01*
X150666667Y-73954819D02*
X151285714Y-73954819D01*
X150435833Y-68609580D02*
X150388214Y-68657200D01*
X150388214Y-68657200D02*
X150245357Y-68704819D01*
X150245357Y-68704819D02*
X150150119Y-68704819D01*
X150150119Y-68704819D02*
X150007262Y-68657200D01*
X150007262Y-68657200D02*
X149912024Y-68561961D01*
X149912024Y-68561961D02*
X149864405Y-68466723D01*
X149864405Y-68466723D02*
X149816786Y-68276247D01*
X149816786Y-68276247D02*
X149816786Y-68133390D01*
X149816786Y-68133390D02*
X149864405Y-67942914D01*
X149864405Y-67942914D02*
X149912024Y-67847676D01*
X149912024Y-67847676D02*
X150007262Y-67752438D01*
X150007262Y-67752438D02*
X150150119Y-67704819D01*
X150150119Y-67704819D02*
X150245357Y-67704819D01*
X150245357Y-67704819D02*
X150388214Y-67752438D01*
X150388214Y-67752438D02*
X150435833Y-67800057D01*
X151388214Y-68704819D02*
X150816786Y-68704819D01*
X151102500Y-68704819D02*
X151102500Y-67704819D01*
X151102500Y-67704819D02*
X151007262Y-67847676D01*
X151007262Y-67847676D02*
X150912024Y-67942914D01*
X150912024Y-67942914D02*
X150816786Y-67990533D01*
X161209166Y-74564819D02*
X161209166Y-75279104D01*
X161209166Y-75279104D02*
X161161547Y-75421961D01*
X161161547Y-75421961D02*
X161066309Y-75517200D01*
X161066309Y-75517200D02*
X160923452Y-75564819D01*
X160923452Y-75564819D02*
X160828214Y-75564819D01*
X162209166Y-75564819D02*
X161637738Y-75564819D01*
X161923452Y-75564819D02*
X161923452Y-74564819D01*
X161923452Y-74564819D02*
X161828214Y-74707676D01*
X161828214Y-74707676D02*
X161732976Y-74802914D01*
X161732976Y-74802914D02*
X161637738Y-74850533D01*
X153928571Y-87231009D02*
X153595238Y-87231009D01*
X153595238Y-87754819D02*
X153595238Y-86754819D01*
X153595238Y-86754819D02*
X154071428Y-86754819D01*
X154452381Y-87754819D02*
X154452381Y-86754819D01*
X154928571Y-87754819D02*
X154928571Y-86754819D01*
X154928571Y-86754819D02*
X155166666Y-86754819D01*
X155166666Y-86754819D02*
X155309523Y-86802438D01*
X155309523Y-86802438D02*
X155404761Y-86897676D01*
X155404761Y-86897676D02*
X155452380Y-86992914D01*
X155452380Y-86992914D02*
X155499999Y-87183390D01*
X155499999Y-87183390D02*
X155499999Y-87326247D01*
X155499999Y-87326247D02*
X155452380Y-87516723D01*
X155452380Y-87516723D02*
X155404761Y-87611961D01*
X155404761Y-87611961D02*
X155309523Y-87707200D01*
X155309523Y-87707200D02*
X155166666Y-87754819D01*
X155166666Y-87754819D02*
X154928571Y-87754819D01*
X155833333Y-86754819D02*
X156452380Y-86754819D01*
X156452380Y-86754819D02*
X156119047Y-87135771D01*
X156119047Y-87135771D02*
X156261904Y-87135771D01*
X156261904Y-87135771D02*
X156357142Y-87183390D01*
X156357142Y-87183390D02*
X156404761Y-87231009D01*
X156404761Y-87231009D02*
X156452380Y-87326247D01*
X156452380Y-87326247D02*
X156452380Y-87564342D01*
X156452380Y-87564342D02*
X156404761Y-87659580D01*
X156404761Y-87659580D02*
X156357142Y-87707200D01*
X156357142Y-87707200D02*
X156261904Y-87754819D01*
X156261904Y-87754819D02*
X155976190Y-87754819D01*
X155976190Y-87754819D02*
X155880952Y-87707200D01*
X155880952Y-87707200D02*
X155833333Y-87659580D01*
X157454819Y-81738094D02*
X156454819Y-81738094D01*
X156454819Y-81738094D02*
X156454819Y-81499999D01*
X156454819Y-81499999D02*
X156502438Y-81357142D01*
X156502438Y-81357142D02*
X156597676Y-81261904D01*
X156597676Y-81261904D02*
X156692914Y-81214285D01*
X156692914Y-81214285D02*
X156883390Y-81166666D01*
X156883390Y-81166666D02*
X157026247Y-81166666D01*
X157026247Y-81166666D02*
X157216723Y-81214285D01*
X157216723Y-81214285D02*
X157311961Y-81261904D01*
X157311961Y-81261904D02*
X157407200Y-81357142D01*
X157407200Y-81357142D02*
X157454819Y-81499999D01*
X157454819Y-81499999D02*
X157454819Y-81738094D01*
X156550057Y-80785713D02*
X156502438Y-80738094D01*
X156502438Y-80738094D02*
X156454819Y-80642856D01*
X156454819Y-80642856D02*
X156454819Y-80404761D01*
X156454819Y-80404761D02*
X156502438Y-80309523D01*
X156502438Y-80309523D02*
X156550057Y-80261904D01*
X156550057Y-80261904D02*
X156645295Y-80214285D01*
X156645295Y-80214285D02*
X156740533Y-80214285D01*
X156740533Y-80214285D02*
X156883390Y-80261904D01*
X156883390Y-80261904D02*
X157454819Y-80833332D01*
X157454819Y-80833332D02*
X157454819Y-80214285D01*
X157954819Y-79238094D02*
X156954819Y-79238094D01*
X156954819Y-79238094D02*
X156954819Y-78999999D01*
X156954819Y-78999999D02*
X157002438Y-78857142D01*
X157002438Y-78857142D02*
X157097676Y-78761904D01*
X157097676Y-78761904D02*
X157192914Y-78714285D01*
X157192914Y-78714285D02*
X157383390Y-78666666D01*
X157383390Y-78666666D02*
X157526247Y-78666666D01*
X157526247Y-78666666D02*
X157716723Y-78714285D01*
X157716723Y-78714285D02*
X157811961Y-78761904D01*
X157811961Y-78761904D02*
X157907200Y-78857142D01*
X157907200Y-78857142D02*
X157954819Y-78999999D01*
X157954819Y-78999999D02*
X157954819Y-79238094D01*
X157954819Y-77714285D02*
X157954819Y-78285713D01*
X157954819Y-77999999D02*
X156954819Y-77999999D01*
X156954819Y-77999999D02*
X157097676Y-78095237D01*
X157097676Y-78095237D02*
X157192914Y-78190475D01*
X157192914Y-78190475D02*
X157240533Y-78285713D01*
X158050057Y-75095238D02*
X158002438Y-75190476D01*
X158002438Y-75190476D02*
X157907200Y-75285714D01*
X157907200Y-75285714D02*
X157764342Y-75428571D01*
X157764342Y-75428571D02*
X157716723Y-75523809D01*
X157716723Y-75523809D02*
X157716723Y-75619047D01*
X157954819Y-75571428D02*
X157907200Y-75666666D01*
X157907200Y-75666666D02*
X157811961Y-75761904D01*
X157811961Y-75761904D02*
X157621485Y-75809523D01*
X157621485Y-75809523D02*
X157288152Y-75809523D01*
X157288152Y-75809523D02*
X157097676Y-75761904D01*
X157097676Y-75761904D02*
X157002438Y-75666666D01*
X157002438Y-75666666D02*
X156954819Y-75571428D01*
X156954819Y-75571428D02*
X156954819Y-75380952D01*
X156954819Y-75380952D02*
X157002438Y-75285714D01*
X157002438Y-75285714D02*
X157097676Y-75190476D01*
X157097676Y-75190476D02*
X157288152Y-75142857D01*
X157288152Y-75142857D02*
X157621485Y-75142857D01*
X157621485Y-75142857D02*
X157811961Y-75190476D01*
X157811961Y-75190476D02*
X157907200Y-75285714D01*
X157907200Y-75285714D02*
X157954819Y-75380952D01*
X157954819Y-75380952D02*
X157954819Y-75571428D01*
X157050057Y-74761904D02*
X157002438Y-74714285D01*
X157002438Y-74714285D02*
X156954819Y-74619047D01*
X156954819Y-74619047D02*
X156954819Y-74380952D01*
X156954819Y-74380952D02*
X157002438Y-74285714D01*
X157002438Y-74285714D02*
X157050057Y-74238095D01*
X157050057Y-74238095D02*
X157145295Y-74190476D01*
X157145295Y-74190476D02*
X157240533Y-74190476D01*
X157240533Y-74190476D02*
X157383390Y-74238095D01*
X157383390Y-74238095D02*
X157954819Y-74809523D01*
X157954819Y-74809523D02*
X157954819Y-74190476D01*
X154967261Y-68800057D02*
X154872023Y-68752438D01*
X154872023Y-68752438D02*
X154776785Y-68657200D01*
X154776785Y-68657200D02*
X154633928Y-68514342D01*
X154633928Y-68514342D02*
X154538690Y-68466723D01*
X154538690Y-68466723D02*
X154443452Y-68466723D01*
X154491071Y-68704819D02*
X154395833Y-68657200D01*
X154395833Y-68657200D02*
X154300595Y-68561961D01*
X154300595Y-68561961D02*
X154252976Y-68371485D01*
X154252976Y-68371485D02*
X154252976Y-68038152D01*
X154252976Y-68038152D02*
X154300595Y-67847676D01*
X154300595Y-67847676D02*
X154395833Y-67752438D01*
X154395833Y-67752438D02*
X154491071Y-67704819D01*
X154491071Y-67704819D02*
X154681547Y-67704819D01*
X154681547Y-67704819D02*
X154776785Y-67752438D01*
X154776785Y-67752438D02*
X154872023Y-67847676D01*
X154872023Y-67847676D02*
X154919642Y-68038152D01*
X154919642Y-68038152D02*
X154919642Y-68371485D01*
X154919642Y-68371485D02*
X154872023Y-68561961D01*
X154872023Y-68561961D02*
X154776785Y-68657200D01*
X154776785Y-68657200D02*
X154681547Y-68704819D01*
X154681547Y-68704819D02*
X154491071Y-68704819D01*
X155872023Y-68704819D02*
X155300595Y-68704819D01*
X155586309Y-68704819D02*
X155586309Y-67704819D01*
X155586309Y-67704819D02*
X155491071Y-67847676D01*
X155491071Y-67847676D02*
X155395833Y-67942914D01*
X155395833Y-67942914D02*
X155300595Y-67990533D01*
X150333333Y-84454819D02*
X150000000Y-83978628D01*
X149761905Y-84454819D02*
X149761905Y-83454819D01*
X149761905Y-83454819D02*
X150142857Y-83454819D01*
X150142857Y-83454819D02*
X150238095Y-83502438D01*
X150238095Y-83502438D02*
X150285714Y-83550057D01*
X150285714Y-83550057D02*
X150333333Y-83645295D01*
X150333333Y-83645295D02*
X150333333Y-83788152D01*
X150333333Y-83788152D02*
X150285714Y-83883390D01*
X150285714Y-83883390D02*
X150238095Y-83931009D01*
X150238095Y-83931009D02*
X150142857Y-83978628D01*
X150142857Y-83978628D02*
X149761905Y-83978628D01*
X151190476Y-83788152D02*
X151190476Y-84454819D01*
X150952381Y-83407200D02*
X150714286Y-84121485D01*
X150714286Y-84121485D02*
X151333333Y-84121485D01*
X150333333Y-81454819D02*
X150000000Y-80978628D01*
X149761905Y-81454819D02*
X149761905Y-80454819D01*
X149761905Y-80454819D02*
X150142857Y-80454819D01*
X150142857Y-80454819D02*
X150238095Y-80502438D01*
X150238095Y-80502438D02*
X150285714Y-80550057D01*
X150285714Y-80550057D02*
X150333333Y-80645295D01*
X150333333Y-80645295D02*
X150333333Y-80788152D01*
X150333333Y-80788152D02*
X150285714Y-80883390D01*
X150285714Y-80883390D02*
X150238095Y-80931009D01*
X150238095Y-80931009D02*
X150142857Y-80978628D01*
X150142857Y-80978628D02*
X149761905Y-80978628D01*
X150666667Y-80454819D02*
X151285714Y-80454819D01*
X151285714Y-80454819D02*
X150952381Y-80835771D01*
X150952381Y-80835771D02*
X151095238Y-80835771D01*
X151095238Y-80835771D02*
X151190476Y-80883390D01*
X151190476Y-80883390D02*
X151238095Y-80931009D01*
X151238095Y-80931009D02*
X151285714Y-81026247D01*
X151285714Y-81026247D02*
X151285714Y-81264342D01*
X151285714Y-81264342D02*
X151238095Y-81359580D01*
X151238095Y-81359580D02*
X151190476Y-81407200D01*
X151190476Y-81407200D02*
X151095238Y-81454819D01*
X151095238Y-81454819D02*
X150809524Y-81454819D01*
X150809524Y-81454819D02*
X150714286Y-81407200D01*
X150714286Y-81407200D02*
X150666667Y-81359580D01*
X150333333Y-78954819D02*
X150000000Y-78478628D01*
X149761905Y-78954819D02*
X149761905Y-77954819D01*
X149761905Y-77954819D02*
X150142857Y-77954819D01*
X150142857Y-77954819D02*
X150238095Y-78002438D01*
X150238095Y-78002438D02*
X150285714Y-78050057D01*
X150285714Y-78050057D02*
X150333333Y-78145295D01*
X150333333Y-78145295D02*
X150333333Y-78288152D01*
X150333333Y-78288152D02*
X150285714Y-78383390D01*
X150285714Y-78383390D02*
X150238095Y-78431009D01*
X150238095Y-78431009D02*
X150142857Y-78478628D01*
X150142857Y-78478628D02*
X149761905Y-78478628D01*
X150714286Y-78050057D02*
X150761905Y-78002438D01*
X150761905Y-78002438D02*
X150857143Y-77954819D01*
X150857143Y-77954819D02*
X151095238Y-77954819D01*
X151095238Y-77954819D02*
X151190476Y-78002438D01*
X151190476Y-78002438D02*
X151238095Y-78050057D01*
X151238095Y-78050057D02*
X151285714Y-78145295D01*
X151285714Y-78145295D02*
X151285714Y-78240533D01*
X151285714Y-78240533D02*
X151238095Y-78383390D01*
X151238095Y-78383390D02*
X150666667Y-78954819D01*
X150666667Y-78954819D02*
X151285714Y-78954819D01*
X150333333Y-76454819D02*
X150000000Y-75978628D01*
X149761905Y-76454819D02*
X149761905Y-75454819D01*
X149761905Y-75454819D02*
X150142857Y-75454819D01*
X150142857Y-75454819D02*
X150238095Y-75502438D01*
X150238095Y-75502438D02*
X150285714Y-75550057D01*
X150285714Y-75550057D02*
X150333333Y-75645295D01*
X150333333Y-75645295D02*
X150333333Y-75788152D01*
X150333333Y-75788152D02*
X150285714Y-75883390D01*
X150285714Y-75883390D02*
X150238095Y-75931009D01*
X150238095Y-75931009D02*
X150142857Y-75978628D01*
X150142857Y-75978628D02*
X149761905Y-75978628D01*
X151285714Y-76454819D02*
X150714286Y-76454819D01*
X151000000Y-76454819D02*
X151000000Y-75454819D01*
X151000000Y-75454819D02*
X150904762Y-75597676D01*
X150904762Y-75597676D02*
X150809524Y-75692914D01*
X150809524Y-75692914D02*
X150714286Y-75740533D01*
X144931009Y-75571428D02*
X144931009Y-75904761D01*
X145454819Y-75904761D02*
X144454819Y-75904761D01*
X144454819Y-75904761D02*
X144454819Y-75428571D01*
X145454819Y-75047618D02*
X144454819Y-75047618D01*
X145454819Y-74571428D02*
X144454819Y-74571428D01*
X144454819Y-74571428D02*
X144454819Y-74333333D01*
X144454819Y-74333333D02*
X144502438Y-74190476D01*
X144502438Y-74190476D02*
X144597676Y-74095238D01*
X144597676Y-74095238D02*
X144692914Y-74047619D01*
X144692914Y-74047619D02*
X144883390Y-74000000D01*
X144883390Y-74000000D02*
X145026247Y-74000000D01*
X145026247Y-74000000D02*
X145216723Y-74047619D01*
X145216723Y-74047619D02*
X145311961Y-74095238D01*
X145311961Y-74095238D02*
X145407200Y-74190476D01*
X145407200Y-74190476D02*
X145454819Y-74333333D01*
X145454819Y-74333333D02*
X145454819Y-74571428D01*
X145454819Y-73047619D02*
X145454819Y-73619047D01*
X145454819Y-73333333D02*
X144454819Y-73333333D01*
X144454819Y-73333333D02*
X144597676Y-73428571D01*
X144597676Y-73428571D02*
X144692914Y-73523809D01*
X144692914Y-73523809D02*
X144740533Y-73619047D01*
X157428571Y-61431009D02*
X157095238Y-61431009D01*
X157095238Y-61954819D02*
X157095238Y-60954819D01*
X157095238Y-60954819D02*
X157571428Y-60954819D01*
X157952381Y-61954819D02*
X157952381Y-60954819D01*
X158428571Y-61954819D02*
X158428571Y-60954819D01*
X158428571Y-60954819D02*
X158666666Y-60954819D01*
X158666666Y-60954819D02*
X158809523Y-61002438D01*
X158809523Y-61002438D02*
X158904761Y-61097676D01*
X158904761Y-61097676D02*
X158952380Y-61192914D01*
X158952380Y-61192914D02*
X158999999Y-61383390D01*
X158999999Y-61383390D02*
X158999999Y-61526247D01*
X158999999Y-61526247D02*
X158952380Y-61716723D01*
X158952380Y-61716723D02*
X158904761Y-61811961D01*
X158904761Y-61811961D02*
X158809523Y-61907200D01*
X158809523Y-61907200D02*
X158666666Y-61954819D01*
X158666666Y-61954819D02*
X158428571Y-61954819D01*
X159857142Y-61288152D02*
X159857142Y-61954819D01*
X159619047Y-60907200D02*
X159380952Y-61621485D01*
X159380952Y-61621485D02*
X159999999Y-61621485D01*
X165238095Y-86504819D02*
X165238095Y-85504819D01*
X165238095Y-85981009D02*
X165809523Y-85981009D01*
X165809523Y-86504819D02*
X165809523Y-85504819D01*
X166190476Y-85504819D02*
X166809523Y-85504819D01*
X166809523Y-85504819D02*
X166476190Y-85885771D01*
X166476190Y-85885771D02*
X166619047Y-85885771D01*
X166619047Y-85885771D02*
X166714285Y-85933390D01*
X166714285Y-85933390D02*
X166761904Y-85981009D01*
X166761904Y-85981009D02*
X166809523Y-86076247D01*
X166809523Y-86076247D02*
X166809523Y-86314342D01*
X166809523Y-86314342D02*
X166761904Y-86409580D01*
X166761904Y-86409580D02*
X166714285Y-86457200D01*
X166714285Y-86457200D02*
X166619047Y-86504819D01*
X166619047Y-86504819D02*
X166333333Y-86504819D01*
X166333333Y-86504819D02*
X166238095Y-86457200D01*
X166238095Y-86457200D02*
X166190476Y-86409580D01*
X165238095Y-66454819D02*
X165238095Y-65454819D01*
X165238095Y-65931009D02*
X165809523Y-65931009D01*
X165809523Y-66454819D02*
X165809523Y-65454819D01*
X166238095Y-65550057D02*
X166285714Y-65502438D01*
X166285714Y-65502438D02*
X166380952Y-65454819D01*
X166380952Y-65454819D02*
X166619047Y-65454819D01*
X166619047Y-65454819D02*
X166714285Y-65502438D01*
X166714285Y-65502438D02*
X166761904Y-65550057D01*
X166761904Y-65550057D02*
X166809523Y-65645295D01*
X166809523Y-65645295D02*
X166809523Y-65740533D01*
X166809523Y-65740533D02*
X166761904Y-65883390D01*
X166761904Y-65883390D02*
X166190476Y-66454819D01*
X166190476Y-66454819D02*
X166809523Y-66454819D01*
D11*
%TO.C,C2*%
X150461920Y-71680000D02*
X150743080Y-71680000D01*
X150461920Y-72700000D02*
X150743080Y-72700000D01*
%TO.C,C1*%
X150461920Y-69170000D02*
X150743080Y-69170000D01*
X150461920Y-70190000D02*
X150743080Y-70190000D01*
%TO.C,J1*%
X162652500Y-74110000D02*
X161542500Y-74110000D01*
X162652500Y-73000000D02*
X162652500Y-74110000D01*
X162652500Y-72000000D02*
X162652500Y-69890000D01*
X162652500Y-72000000D02*
X160432500Y-72000000D01*
X162652500Y-69890000D02*
X160432500Y-69890000D01*
X160432500Y-72000000D02*
X160432500Y-69890000D01*
%TO.C,D2*%
X153167500Y-80475000D02*
X153167500Y-81945000D01*
X153167500Y-81945000D02*
X155452500Y-81945000D01*
X155452500Y-80475000D02*
X153167500Y-80475000D01*
%TO.C,D1*%
X153167500Y-77885000D02*
X153167500Y-79355000D01*
X153167500Y-79355000D02*
X155452500Y-79355000D01*
X155452500Y-77885000D02*
X153167500Y-77885000D01*
%TO.C,Q2*%
X154302500Y-73540000D02*
X155822500Y-73540000D01*
X154302500Y-73590000D02*
X154302500Y-73540000D01*
X154302500Y-75490000D02*
X154302500Y-74710000D01*
X154302500Y-76660000D02*
X154302500Y-76610000D01*
X155822500Y-73540000D02*
X155822500Y-74540000D01*
X155822500Y-75660000D02*
X155822500Y-76660000D01*
X155822500Y-76660000D02*
X154302500Y-76660000D01*
X154002500Y-75050000D02*
X153522500Y-75050000D01*
X153762500Y-74720000D01*
X154002500Y-75050000D01*
G36*
X154002500Y-75050000D02*
G01*
X153522500Y-75050000D01*
X153762500Y-74720000D01*
X154002500Y-75050000D01*
G37*
%TO.C,Q1*%
X154302500Y-69090000D02*
X155822500Y-69090000D01*
X154302500Y-69140000D02*
X154302500Y-69090000D01*
X154302500Y-71040000D02*
X154302500Y-70260000D01*
X154302500Y-72210000D02*
X154302500Y-72160000D01*
X155822500Y-69090000D02*
X155822500Y-70090000D01*
X155822500Y-71210000D02*
X155822500Y-72210000D01*
X155822500Y-72210000D02*
X154302500Y-72210000D01*
X154002500Y-70600000D02*
X153522500Y-70600000D01*
X153762500Y-70270000D01*
X154002500Y-70600000D01*
G36*
X154002500Y-70600000D02*
G01*
X153522500Y-70600000D01*
X153762500Y-70270000D01*
X154002500Y-70600000D01*
G37*
%TO.C,R4*%
X150365242Y-81707500D02*
X150839758Y-81707500D01*
X150365242Y-82752500D02*
X150839758Y-82752500D01*
%TO.C,R3*%
X150365242Y-79197500D02*
X150839758Y-79197500D01*
X150365242Y-80242500D02*
X150839758Y-80242500D01*
%TO.C,R2*%
X150365242Y-76687500D02*
X150839758Y-76687500D01*
X150365242Y-77732500D02*
X150839758Y-77732500D01*
%TO.C,R1*%
X150365242Y-74177500D02*
X150839758Y-74177500D01*
X150365242Y-75222500D02*
X150839758Y-75222500D01*
%TD*%
M02*
